<?xml version="1.0" encoding="utf-8"?>
<!-- Generator: Adobe Illustrator 27.5.0, SVG Export Plug-In . SVG Version: 6.00 Build 0)  -->
<svg version="1.1" id="Layer_1" xmlns="http://www.w3.org/2000/svg" xmlns:xlink="http://www.w3.org/1999/xlink" x="0px" y="0px"
	 viewBox="0 0 4000 4000" style="enable-background:#FFFFFF00;" xml:space="preserve">
<g>
	<rect style="fill-rule:evenodd;clip-rule:evenodd;fill:#FFFFFF00;" width="4000" height="4000"/>
	<path style="fill-rule:evenodd;clip-rule:evenodd;" d="M1357.843,2037.293c0.368-2.24,0.623-4.517,0.765-6.818
		c0.085-1.402,0.127-2.815,0.127-4.232c0-37.542-30.425-67.97-67.965-67.97c-37.535,0-67.965,30.428-67.965,67.97
		c0,37.535,30.43,67.965,67.965,67.965C1324.544,2094.208,1352.564,2069.574,1357.843,2037.293"/>
	<path style="fill-rule:evenodd;clip-rule:evenodd;" d="M1713.326,2026.243c0-233.371-189.185-422.556-422.557-422.556
		s-422.555,189.185-422.555,422.556s189.183,422.555,422.555,422.555S1713.326,2259.614,1713.326,2026.243 M1290.769,2360.876
		c-184.813,0-334.635-149.82-334.635-334.633c0-184.815,149.822-334.64,334.635-334.64c184.815,0,334.64,149.825,334.64,334.64
		C1625.409,2211.056,1475.584,2360.876,1290.769,2360.876z"/>
	<path style="fill-rule:evenodd;clip-rule:evenodd;fill:#FFFFFF;" d="M1666.346,2026.243c0-207.427-168.152-375.576-375.577-375.576
		s-375.577,168.15-375.577,375.576c0,207.425,168.152,375.575,375.577,375.575S1666.346,2233.667,1666.346,2026.243
		 M935.796,2026.243c0-196.05,158.93-354.973,354.973-354.973c196.048,0,354.973,158.923,354.973,354.973
		c0,196.048-158.925,354.973-354.973,354.973C1094.726,2381.216,935.796,2222.291,935.796,2026.243z"/>
	<path style="fill-rule:evenodd;clip-rule:evenodd;" d="M1289.078,1691.603c0-0.935,0.762-1.691,1.697-1.691
		c0.935,0,1.697,0.756,1.697,1.691v334.64c0,0.935-0.762,1.695-1.697,1.695c-0.935,0-1.697-0.76-1.697-1.695V1691.603z"/>
	<path style="fill-rule:evenodd;clip-rule:evenodd;" d="M1375.488,1702.501c0.237-0.906,1.167-1.44,2.068-1.2
		c0.903,0.242,1.442,1.168,1.2,2.07l-86.347,323.305c-0.242,0.903-1.167,1.442-2.075,1.2c-0.902-0.24-1.435-1.167-1.195-2.073
		L1375.488,1702.501z"/>
	<path style="fill-rule:evenodd;clip-rule:evenodd;" d="M1456.156,1735.328c0.463-0.808,1.498-1.087,2.307-0.625
		c0.808,0.463,1.087,1.498,0.623,2.307l-166.847,290.073c-0.468,0.808-1.498,1.087-2.307,0.623
		c-0.807-0.467-1.087-1.497-0.623-2.305L1456.156,1735.328z"/>
	<path style="fill-rule:evenodd;clip-rule:evenodd;" d="M1525.619,1787.848c0.657-0.662,1.73-0.662,2.392-0.003
		c0.66,0.656,0.665,1.728,0.008,2.39l-236.045,237.198c-0.662,0.662-1.73,0.667-2.395,0.01c-0.662-0.662-0.662-1.73-0.005-2.397
		L1525.619,1787.848z"/>
	<path style="fill-rule:evenodd;clip-rule:evenodd;" d="M1579.184,1856.518c0.808-0.468,1.843-0.188,2.312,0.618
		c0.467,0.808,0.188,1.843-0.615,2.31l-289.261,168.26c-0.807,0.468-1.842,0.19-2.31-0.618c-0.467-0.808-0.188-1.843,0.615-2.31
		L1579.184,1856.518z"/>
	<path style="fill-rule:evenodd;clip-rule:evenodd;" d="M1613.211,1936.686c0.901-0.245,1.832,0.288,2.078,1.19
		c0.245,0.903-0.288,1.833-1.19,2.08l-322.882,87.92c-0.902,0.247-1.837-0.288-2.078-1.19c-0.245-0.907,0.288-1.838,1.19-2.078
		L1613.211,1936.686z"/>
	<path style="fill-rule:evenodd;clip-rule:evenodd;" d="M1625.399,2022.921c0.93,0,1.692,0.752,1.697,1.682
		c0,0.93-0.752,1.697-1.682,1.697l-334.635,1.63c-0.932,0.003-1.692-0.752-1.697-1.683c0-0.93,0.752-1.69,1.682-1.695
		L1625.399,2022.921z"/>
	<path style="fill-rule:evenodd;clip-rule:evenodd;" d="M1614.921,2109.377c0.902,0.232,1.44,1.157,1.208,2.06
		c-0.23,0.902-1.156,1.445-2.058,1.208l-323.722-84.77c-0.903-0.232-1.447-1.156-1.21-2.06c0.232-0.902,1.153-1.445,2.06-1.208
		L1614.921,2109.377z"/>
	<path style="fill-rule:evenodd;clip-rule:evenodd;" d="M1582.493,2190.202c0.812,0.458,1.095,1.493,0.637,2.305
		c-0.462,0.808-1.492,1.097-2.305,0.633l-290.887-165.43c-0.808-0.458-1.095-1.493-0.633-2.305c0.458-0.808,1.493-1.097,2.302-0.633
		L1582.493,2190.202z"/>
	<path style="fill-rule:evenodd;clip-rule:evenodd;" d="M1530.306,2259.926c0.667,0.652,0.677,1.723,0.02,2.39
		c-0.653,0.662-1.725,0.67-2.392,0.018l-238.347-234.888c-0.665-0.652-0.675-1.723-0.018-2.39c0.652-0.667,1.725-0.675,2.39-0.018
		L1530.306,2259.926z"/>
	<path style="fill-rule:evenodd;clip-rule:evenodd;" d="M1381.899,2348.239c0.245,0.897-0.28,1.828-1.182,2.078
		c-0.898,0.245-1.828-0.278-2.078-1.182l-89.495-322.445c-0.245-0.898,0.278-1.828,1.182-2.078c0.897-0.252,1.828,0.278,2.078,1.175
		L1381.899,2348.239z"/>
	<path style="fill-rule:evenodd;clip-rule:evenodd;" d="M1209.216,2350.789c-0.232,0.903-1.147,1.447-2.055,1.22
		c-0.902-0.232-1.445-1.153-1.214-2.055l83.192-324.133c0.227-0.902,1.148-1.445,2.05-1.213c0.903,0.227,1.452,1.148,1.22,2.05
		L1209.216,2350.789z"/>
	<path style="fill-rule:evenodd;clip-rule:evenodd;" d="M1128.241,2318.754c-0.458,0.817-1.493,1.105-2.307,0.652
		c-0.817-0.453-1.105-1.488-0.652-2.305l164.013-291.685c0.458-0.818,1.488-1.107,2.305-0.653c0.813,0.458,1.105,1.488,0.647,2.307
		L1128.241,2318.754z"/>
	<path style="fill-rule:evenodd;clip-rule:evenodd;" d="M1058.263,2266.907c-0.648,0.672-1.725,0.685-2.392,0.033
		c-0.67-0.647-0.685-1.72-0.032-2.39l233.72-239.49c0.653-0.667,1.725-0.68,2.392-0.033c0.67,0.652,0.685,1.725,0.033,2.39
		L1058.263,2266.907z"/>
	<path style="fill-rule:evenodd;clip-rule:evenodd;" d="M1004.031,2198.768c-0.808,0.473-1.843,0.208-2.32-0.595
		c-0.472-0.803-0.208-1.843,0.595-2.32l287.608-171.07c0.803-0.473,1.842-0.208,2.315,0.595c0.477,0.808,0.208,1.847-0.595,2.32
		L1004.031,2198.768z"/>
	<path style="fill-rule:evenodd;clip-rule:evenodd;" d="M969.221,2118.934c-0.897,0.252-1.833-0.273-2.083-1.172
		c-0.255-0.896,0.27-1.833,1.172-2.088l322.007-91.062c0.898-0.252,1.833,0.273,2.088,1.172c0.25,0.897-0.275,1.832-1.172,2.088
		L969.221,2118.934z"/>
	<path style="fill-rule:evenodd;clip-rule:evenodd;" d="M965.829,1946.273c-0.907-0.228-1.455-1.148-1.228-2.057
		c0.222-0.902,1.143-1.455,2.05-1.228l324.533,81.61c0.908,0.227,1.457,1.148,1.23,2.055c-0.223,0.907-1.143,1.455-2.052,1.228
		L965.829,1946.273z"/>
	<path style="fill-rule:evenodd;clip-rule:evenodd;" d="M1048.974,1794.906c-0.672-0.647-0.69-1.72-0.043-2.39
		c0.648-0.672,1.715-0.695,2.387-0.047l240.628,232.553c0.67,0.648,0.695,1.72,0.047,2.392c-0.647,0.67-1.72,0.693-2.39,0.047
		L1048.974,1794.906z"/>
	<path style="fill-rule:evenodd;clip-rule:evenodd;" d="M1196.518,1705.143c-0.255-0.893,0.265-1.828,1.157-2.083
		c0.898-0.255,1.833,0.26,2.088,1.156l92.632,321.563c0.255,0.893-0.265,1.828-1.157,2.083c-0.893,0.255-1.833-0.265-2.088-1.158
		L1196.518,1705.143z"/>
	<path style="fill-rule:evenodd;clip-rule:evenodd;" d="M1459.554,2315.206c0.462,0.803,0.183,1.838-0.62,2.3
		c-0.807,0.468-1.842,0.185-2.305-0.618l-167.32-289.805c-0.463-0.808-0.183-1.842,0.623-2.305c0.808-0.463,1.838-0.185,2.307,0.623
		L1459.554,2315.206z"/>
	<path style="fill-rule:evenodd;clip-rule:evenodd;" d="M1292.471,2360.876c0,0.937-0.762,1.697-1.697,1.697
		c-0.935,0-1.697-0.76-1.697-1.697v-334.633c0-0.937,0.762-1.697,1.697-1.697c0.935,0,1.697,0.76,1.697,1.697V2360.876z"/>
	<path style="fill-rule:evenodd;clip-rule:evenodd;" d="M956.135,2027.938c-0.935,0-1.692-0.76-1.692-1.695
		c0-0.937,0.757-1.697,1.692-1.697h334.64c0.935,0,1.697,0.76,1.697,1.697c0,0.935-0.762,1.695-1.697,1.695H956.135z"/>
	<path style="fill-rule:evenodd;clip-rule:evenodd;" d="M1000.128,1860.386c-0.807-0.461-1.085-1.497-0.623-2.305
		c0.463-0.809,1.498-1.087,2.307-0.623l289.803,167.32c0.808,0.463,1.087,1.497,0.625,2.305c-0.468,0.808-1.498,1.087-2.307,0.623
		L1000.128,1860.386z"/>
	<path style="fill-rule:evenodd;clip-rule:evenodd;" d="M1121.99,1737.278c-0.462-0.807-0.183-1.842,0.625-2.305
		c0.807-0.463,1.842-0.185,2.305,0.623l167.32,289.805c0.462,0.808,0.183,1.838-0.625,2.305c-0.807,0.463-1.842,0.185-2.305-0.623
		L1121.99,1737.278z"/>
	<path style="fill-rule:evenodd;clip-rule:evenodd;" d="M1525.866,1791.151c-60.167-60.165-143.287-97.38-235.091-97.38
		c-91.81,0-174.932,37.215-235.097,97.38c-60.16,60.16-97.375,143.282-97.375,235.092c0,91.808,37.215,174.925,97.375,235.09
		c60.165,60.167,143.286,97.38,235.097,97.38c91.805,0,174.925-37.213,235.091-97.38c60.16-60.165,97.375-143.282,97.375-235.09
		C1623.241,1934.433,1586.026,1851.311,1525.866,1791.151 M1290.775,1689.439c93.005,0,177.208,37.695,238.153,98.645
		c60.948,60.95,98.65,145.153,98.65,238.158c0,93.003-37.702,177.207-98.65,238.157c-60.945,60.945-145.148,98.645-238.153,98.645
		c-93.005,0-177.213-37.7-238.158-98.645c-60.948-60.95-98.65-145.153-98.65-238.157c0-93.005,37.702-177.208,98.65-238.158
		C1113.561,1727.134,1197.77,1689.439,1290.775,1689.439z"/>
	<path style="fill-rule:evenodd;clip-rule:evenodd;" d="M1641.074,2083.964c1.913-11.691,3.252-23.575,3.993-35.616
		c0.448-7.313,0.675-14.683,0.675-22.105c0-196.05-158.925-354.973-354.973-354.973c-196.043,0-354.973,158.923-354.973,354.973
		c0,196.048,158.93,354.973,354.973,354.973C1467.159,2381.216,1613.503,2252.559,1641.074,2083.964 M968.224,2115.702
		c-7.733-27.958-11.933-57.382-12.09-87.765c-0.935,0-1.692-0.76-1.692-1.695c0-0.937,0.757-1.697,1.692-1.697
		c0.137-26.972,3.463-53.188,9.62-78.293c-0.86-0.26-1.375-1.152-1.153-2.037c0.217-0.878,1.097-1.427,1.975-1.247
		c7.497-29.277,18.86-57.005,33.505-82.612c-0.77-0.477-1.03-1.487-0.577-2.276c0.458-0.794,1.465-1.077,2.263-0.647
		c13.28-22.682,29.15-43.658,47.207-62.528c-0.672-0.647-0.69-1.72-0.043-2.39c0.648-0.672,1.715-0.695,2.387-0.047
		c20.91-21.401,44.665-40.021,70.648-55.233c-0.43-0.798-0.147-1.805,0.648-2.263c0.793-0.453,1.8-0.193,2.277,0.577
		c22.375-12.798,46.375-23.088,71.608-30.482c-0.208-0.87,0.307-1.763,1.175-2.008c0.87-0.245,1.777,0.232,2.06,1.076
		c28.427-8.016,58.39-12.373,89.343-12.533c0-0.935,0.762-1.691,1.697-1.691c0.935,0,1.697,0.756,1.697,1.691
		c28.677,0.147,56.498,3.898,83.035,10.823c0.27-0.86,1.177-1.36,2.05-1.125c0.88,0.232,1.408,1.115,1.22,1.995
		c27.353,7.435,53.32,18.255,77.408,31.983c0.478-0.775,1.485-1.03,2.278-0.577c0.793,0.455,1.077,1.46,0.647,2.258
		c24.278,14.165,46.617,31.29,66.51,50.887c0.657-0.662,1.73-0.662,2.392-0.003c0.66,0.656,0.665,1.728,0.008,2.39
		c19.697,19.805,36.932,42.057,51.203,66.26c0.803-0.435,1.815-0.152,2.273,0.642c0.458,0.79,0.203,1.8-0.568,2.282
		c13.843,24.028,24.79,49.933,32.358,77.25c0.878-0.198,1.767,0.33,2.003,1.208c0.237,0.88-0.26,1.782-1.115,2.055
		c7.058,26.513,10.942,54.322,11.225,82.99c0.93,0,1.692,0.752,1.697,1.682c0,0.93-0.752,1.697-1.682,1.697
		c-0.005,6.595-0.2,13.147-0.577,19.648c-0.7,12.052-2.037,23.938-3.978,35.617c-1.568,9.417-3.53,18.7-5.863,27.837
		c0.855,0.265,1.36,1.157,1.133,2.037c-0.227,0.878-1.11,1.412-1.988,1.229c-7.303,27.396-17.995,53.408-31.602,77.565
		c0.775,0.471,1.04,1.478,0.59,2.277c-0.453,0.793-1.455,1.082-2.262,0.662c-14.042,24.35-31.063,46.767-50.562,66.757
		c0.667,0.652,0.677,1.723,0.02,2.39c-0.653,0.662-1.725,0.67-2.392,0.018c-20.348,20.434-43.313,38.253-68.357,52.914
		c0.43,0.798,0.147,1.805-0.643,2.258c-0.793,0.458-1.8,0.198-2.277-0.572c-23.302,13.328-48.358,23.93-74.74,31.385
		c0.198,0.873-0.327,1.757-1.2,1.998c-0.87,0.24-1.777-0.25-2.055-1.102c-27.487,7.465-56.382,11.51-86.192,11.66
		c0,0.937-0.762,1.697-1.697,1.697c-0.935,0-1.697-0.76-1.697-1.697c-27.543-0.137-54.297-3.603-79.88-10.01
		c-0.265,0.855-1.157,1.365-2.036,1.143c-0.878-0.227-1.417-1.102-1.233-1.98c-27.438-7.172-53.503-17.735-77.72-31.218
		c-0.468,0.775-1.475,1.038-2.273,0.595c-0.798-0.448-1.095-1.45-0.675-2.258c-24.42-13.928-46.918-30.837-66.997-50.24
		c-0.648,0.672-1.725,0.685-2.392,0.033c-0.67-0.647-0.685-1.72-0.032-2.39c-19.89-19.617-37.338-41.703-51.847-65.765
		c-0.798,0.45-1.813,0.18-2.282-0.614c-0.463-0.788-0.217-1.805,0.548-2.292c-14.083-23.895-25.28-49.7-33.113-76.927
		c-0.875,0.203-1.762-0.317-2.008-1.192C966.893,2116.889,967.38,2115.986,968.224,2115.702z"/>
	<path style="fill-rule:evenodd;clip-rule:evenodd;" d="M1600.488,1449.558l-325.195,556.458c-4.98,8.518-1.498,20.255,7.535,24.232
		c9.028,3.973,19.252,0.983,24.227-7.535l325.195-556.46c4.98-8.523,1.493-20.253-7.535-24.232
		C1615.686,1438.048,1605.463,1441.039,1600.488,1449.558"/>
	<path style="fill-rule:evenodd;clip-rule:evenodd;" d="M2097.406,1885.274l375.837-362.748c9.92-9.582,10.203-25.54,0.628-35.467
		c-9.582-9.922-25.542-10.205-35.462-0.628l-341.003,329.135l-170.65,164.707c14.107,9.27,26.277,21.242,35.772,35.183
		L2097.406,1885.274z"/>
	<path style="fill-rule:evenodd;clip-rule:evenodd;" d="M2379.329,1296.273l-754.525,125.056
		c-12.355,2.045-20.788,13.829-18.737,26.182c2.045,12.355,13.828,20.788,26.182,18.742l754.526-125.06
		c12.353-2.045,20.787-13.828,18.737-26.181C2403.467,1302.656,2391.684,1294.223,2379.329,1296.273"/>
	<path style="fill-rule:evenodd;clip-rule:evenodd;" d="M1731.377,2058.589l-449.24-53.323c-9.798-1.163-19.138,6.788-19.138,16.658
		c0,9.868,6.86,17.977,16.658,19.138l448.606,53.253c-0.113-2.23-0.175-4.473-0.175-6.732
		C1728.089,2077.611,1729.228,2067.906,1731.377,2058.589"/>
	<path style="fill-rule:evenodd;clip-rule:evenodd;" d="M3062.087,2038.328c0-233.371-189.185-422.557-422.556-422.557
		s-422.555,189.185-422.555,422.557c0,233.372,189.183,422.555,422.555,422.555S3062.087,2271.699,3062.087,2038.328
		 M2639.531,2372.966c-184.813,0-334.638-149.825-334.638-334.638c0-184.815,149.825-334.64,334.638-334.64
		c184.815,0,334.635,149.825,334.635,334.64C2974.165,2223.141,2824.345,2372.966,2639.531,2372.966z"/>
	<path style="fill-rule:evenodd;clip-rule:evenodd;fill:#FFFFFF;" d="M3015.107,2038.328c0-207.427-168.152-375.577-375.576-375.577
		s-375.575,168.15-375.575,375.577c0,207.425,168.15,375.575,375.575,375.575S3015.107,2245.752,3015.107,2038.328
		 M2284.557,2038.328c0-196.05,158.925-354.973,354.973-354.973c196.045,0,354.973,158.923,354.973,354.973
		c0,196.048-158.928,354.973-354.973,354.973C2443.482,2393.301,2284.557,2234.376,2284.557,2038.328z"/>
	<path style="fill-rule:evenodd;clip-rule:evenodd;" d="M2637.84,1703.688c0-0.935,0.755-1.692,1.695-1.692
		c0.935,0,1.692,0.757,1.692,1.692v334.64c0,0.935-0.757,1.695-1.692,1.695c-0.94,0-1.695-0.76-1.695-1.695V1703.688z"/>
	<path style="fill-rule:evenodd;clip-rule:evenodd;" d="M2724.244,1714.586c0.242-0.907,1.172-1.44,2.075-1.2
		c0.902,0.242,1.44,1.168,1.2,2.075l-86.348,323.3c-0.242,0.908-1.172,1.442-2.073,1.2c-0.903-0.24-1.437-1.167-1.2-2.073
		L2724.244,1714.586z"/>
	<path style="fill-rule:evenodd;clip-rule:evenodd;" d="M2804.919,1747.413c0.463-0.808,1.497-1.087,2.305-0.625
		c0.803,0.463,1.087,1.498,0.618,2.307l-166.847,290.073c-0.463,0.808-1.497,1.087-2.3,0.623c-0.808-0.467-1.086-1.497-0.625-2.305
		L2804.919,1747.413z"/>
	<path style="fill-rule:evenodd;clip-rule:evenodd;" d="M2874.382,1799.933c0.656-0.66,1.728-0.66,2.39-0.003
		c0.662,0.657,0.667,1.728,0.01,2.39l-236.052,237.198c-0.657,0.662-1.728,0.667-2.39,0.01c-0.662-0.662-0.662-1.73-0.005-2.392
		L2874.382,1799.933z"/>
	<path style="fill-rule:evenodd;clip-rule:evenodd;" d="M2927.947,1868.603c0.803-0.468,1.842-0.188,2.31,0.618
		c0.468,0.808,0.188,1.843-0.618,2.31l-289.257,168.26c-0.808,0.468-1.843,0.19-2.312-0.618c-0.467-0.808-0.193-1.843,0.615-2.31
		L2927.947,1868.603z"/>
	<path style="fill-rule:evenodd;clip-rule:evenodd;" d="M2961.972,1948.771c0.902-0.245,1.833,0.288,2.078,1.19
		c0.242,0.903-0.288,1.833-1.195,2.08l-322.88,87.92c-0.903,0.247-1.833-0.288-2.078-1.19c-0.242-0.902,0.287-1.838,1.195-2.078
		L2961.972,1948.771z"/>
	<path style="fill-rule:evenodd;clip-rule:evenodd;" d="M2974.16,2035.006c0.932,0,1.691,0.752,1.697,1.682
		c0,0.935-0.752,1.697-1.681,1.697l-334.635,1.63c-0.93,0.003-1.692-0.747-1.697-1.683c0-0.93,0.751-1.69,1.683-1.695
		L2974.16,2035.006z"/>
	<path style="fill-rule:evenodd;clip-rule:evenodd;" d="M2963.677,2121.462c0.907,0.232,1.447,1.157,1.215,2.06
		c-0.237,0.902-1.158,1.445-2.06,1.213l-323.722-84.775c-0.901-0.232-1.445-1.157-1.213-2.06c0.235-0.902,1.157-1.445,2.058-1.208
		L2963.677,2121.462z"/>
	<path style="fill-rule:evenodd;clip-rule:evenodd;" d="M2931.254,2202.288c0.808,0.458,1.096,1.493,0.633,2.305
		c-0.458,0.809-1.493,1.097-2.302,0.634l-290.886-165.43c-0.812-0.458-1.095-1.493-0.637-2.305c0.463-0.808,1.493-1.097,2.305-0.633
		L2931.254,2202.288z"/>
	<path style="fill-rule:evenodd;clip-rule:evenodd;" d="M2879.069,2272.011c0.66,0.652,0.67,1.723,0.019,2.39
		c-0.657,0.662-1.73,0.672-2.39,0.019l-238.346-234.888c-0.667-0.652-0.677-1.723-0.023-2.39c0.657-0.667,1.728-0.675,2.39-0.018
		L2879.069,2272.011z"/>
	<path style="fill-rule:evenodd;clip-rule:evenodd;" d="M2730.656,2360.324c0.25,0.896-0.279,1.833-1.177,2.078
		c-0.897,0.25-1.833-0.278-2.078-1.177l-89.495-322.45c-0.25-0.898,0.278-1.828,1.177-2.078c0.901-0.247,1.833,0.278,2.078,1.18
		L2730.656,2360.324z"/>
	<path style="fill-rule:evenodd;clip-rule:evenodd;" d="M2557.979,2362.874c-0.232,0.903-1.153,1.452-2.055,1.22
		c-0.903-0.232-1.447-1.153-1.22-2.055l83.193-324.133c0.23-0.902,1.152-1.445,2.055-1.213c0.902,0.227,1.45,1.148,1.219,2.05
		L2557.979,2362.874z"/>
	<path style="fill-rule:evenodd;clip-rule:evenodd;" d="M2476.997,2330.844c-0.453,0.812-1.489,1.105-2.3,0.647
		c-0.818-0.453-1.107-1.488-0.653-2.305l164.013-291.685c0.454-0.818,1.489-1.107,2.305-0.653c0.813,0.458,1.107,1.488,0.648,2.307
		L2476.997,2330.844z"/>
	<path style="fill-rule:evenodd;clip-rule:evenodd;" d="M2407.024,2278.992c-0.651,0.672-1.725,0.685-2.39,0.033
		c-0.672-0.647-0.685-1.72-0.038-2.39l233.726-239.49c0.647-0.667,1.723-0.68,2.39-0.033c0.672,0.652,0.685,1.725,0.033,2.39
		L2407.024,2278.992z"/>
	<path style="fill-rule:evenodd;clip-rule:evenodd;" d="M2352.787,2210.853c-0.803,0.473-1.842,0.208-2.315-0.595
		c-0.477-0.803-0.207-1.842,0.597-2.32l287.602-171.065c0.809-0.478,1.843-0.213,2.32,0.595c0.473,0.803,0.208,1.842-0.595,2.315
		L2352.787,2210.853z"/>
	<path style="fill-rule:evenodd;clip-rule:evenodd;" d="M2317.984,2131.019c-0.898,0.255-1.833-0.273-2.088-1.172
		c-0.251-0.897,0.273-1.832,1.172-2.083l322.01-91.067c0.898-0.252,1.833,0.273,2.083,1.172c0.255,0.897-0.268,1.832-1.172,2.088
		L2317.984,2131.019z"/>
	<path style="fill-rule:evenodd;clip-rule:evenodd;" d="M2314.591,1958.358c-0.907-0.228-1.46-1.148-1.233-2.057
		c0.227-0.902,1.148-1.455,2.056-1.228l324.533,81.61c0.902,0.227,1.455,1.148,1.228,2.055c-0.227,0.907-1.148,1.455-2.05,1.233
		L2314.591,1958.358z"/>
	<path style="fill-rule:evenodd;clip-rule:evenodd;" d="M2397.736,1806.991c-0.67-0.647-0.693-1.718-0.047-2.39
		c0.647-0.672,1.72-0.695,2.39-0.047l240.628,232.553c0.672,0.648,0.69,1.72,0.043,2.392c-0.648,0.67-1.715,0.693-2.387,0.047
		L2397.736,1806.991z"/>
	<path style="fill-rule:evenodd;clip-rule:evenodd;" d="M2545.279,1717.228c-0.255-0.893,0.265-1.828,1.158-2.083
		c0.892-0.255,1.833,0.265,2.088,1.157l92.63,321.563c0.257,0.893-0.263,1.828-1.157,2.083c-0.898,0.255-1.833-0.26-2.088-1.158
		L2545.279,1717.228z"/>
	<path style="fill-rule:evenodd;clip-rule:evenodd;" d="M2808.315,2327.291c0.464,0.808,0.184,1.838-0.623,2.3
		c-0.808,0.468-1.838,0.19-2.302-0.618l-167.32-289.805c-0.462-0.808-0.183-1.842,0.625-2.305c0.803-0.463,1.837-0.185,2.3,0.623
		L2808.315,2327.291z"/>
	<path style="fill-rule:evenodd;clip-rule:evenodd;" d="M2641.227,2372.961c0,0.937-0.757,1.697-1.692,1.697
		c-0.94,0-1.695-0.76-1.695-1.697v-334.633c0-0.937,0.755-1.697,1.695-1.697c0.935,0,1.692,0.76,1.692,1.697V2372.961z"/>
	<path style="fill-rule:evenodd;clip-rule:evenodd;" d="M2304.897,2040.022c-0.937,0-1.697-0.76-1.697-1.695
		c0-0.937,0.76-1.697,1.697-1.697h334.638c0.935,0,1.692,0.76,1.692,1.697c0,0.935-0.757,1.695-1.692,1.695H2304.897z"/>
	<path style="fill-rule:evenodd;clip-rule:evenodd;" d="M2348.891,1872.473c-0.808-0.463-1.087-1.498-0.623-2.307
		c0.462-0.808,1.497-1.087,2.305-0.623l289.805,167.32c0.803,0.463,1.087,1.497,0.618,2.305c-0.463,0.808-1.497,1.087-2.3,0.623
		L2348.891,1872.473z"/>
	<path style="fill-rule:evenodd;clip-rule:evenodd;" d="M2470.752,1749.363c-0.463-0.807-0.185-1.842,0.623-2.305
		c0.808-0.463,1.838-0.185,2.305,0.623l167.315,289.805c0.469,0.808,0.185,1.838-0.618,2.305c-0.808,0.463-1.843,0.185-2.307-0.623
		L2470.752,1749.363z"/>
	<path style="fill-rule:evenodd;clip-rule:evenodd;" d="M2989.837,2096.049c1.908-11.688,3.25-23.57,3.992-35.617
		c0.448-7.313,0.675-14.683,0.675-22.105c0-196.045-158.923-354.973-354.973-354.973c-196.048,0-354.973,158.928-354.973,354.973
		c0,196.048,158.925,354.973,354.973,354.973C2815.922,2393.301,2962.265,2264.644,2989.837,2096.049 M2874.627,1803.236
		c-60.165-60.165-143.287-97.38-235.097-97.38c-91.803,0-174.925,37.215-235.09,97.38c-60.162,60.16-97.375,143.281-97.375,235.091
		c0,91.808,37.213,174.93,97.375,235.09c60.165,60.167,143.287,97.38,235.09,97.38c91.81,0,174.931-37.213,235.097-97.38
		c60.16-60.16,97.375-143.282,97.375-235.09C2972.002,1946.518,2934.787,1863.396,2874.627,1803.236z"/>
	<path style="fill-rule:evenodd;clip-rule:evenodd;" d="M1562.994,1336.545l226.857,641.31
		c12.623-7.672,26.683-13.218,41.675-16.162l-181.262-512.428l-45.502-128.622c-4.993-14.132-20.748-21.502-34.857-16.437
		C1555.799,1309.271,1557.996,1322.415,1562.994,1336.545"/>
	<path style="fill-rule:evenodd;clip-rule:evenodd;" d="M1677.561,1252.606c-99.605,11.405-232.695-1.408-268.695-5.292
		c-46.833-5.055-12.312,20.688,3.5,30.283c70.815,42.968,76.167,81.875,150.028,68.698c36.128-6.445,165.705-54.077,189.747-83.778
		c10.332-12.76,3.533-17.523-4.862-19.2C1731.301,1240.125,1696.328,1250.456,1677.561,1252.606"/>
	<path style="fill-rule:evenodd;clip-rule:evenodd;" d="M1856.399,1948.076c-77.045,0-139.507,62.457-139.507,139.508
		c0,77.045,62.462,139.502,139.507,139.502s139.507-62.457,139.507-139.502C1995.906,2010.532,1933.444,1948.076,1856.399,1948.076
		 M1742.948,2069.711c6.312-40.422,33.718-73.862,70.607-88.705c13.237-5.33,27.698-8.258,42.845-8.258
		c18.898,0,36.732,4.563,52.455,12.657c29.905,15.378,52.187,43.507,59.655,77.202c1.786,8.04,2.727,16.398,2.727,24.978
		c0,9.335-1.115,18.41-3.227,27.104c-7.885,32.617-29.708,59.802-58.8,74.896c-15.813,8.197-33.77,12.832-52.81,12.832
		c-15.355,0-30.005-3.01-43.388-8.487c-35.943-14.673-62.778-47.035-69.7-86.272c-1.148-6.52-1.748-13.228-1.748-20.073
		C1741.563,2081.502,1742.036,2075.536,1742.948,2069.711z"/>
	<path style="fill-rule:evenodd;clip-rule:evenodd;" d="M1885.568,1806.548c0-20.112-12.817-36.562-28.488-36.562
		c-15.665,0-28.483,16.45-28.483,36.562v297.175c0,14.395,9.175,26.168,20.39,26.168h16.192c11.215,0,20.39-11.773,20.39-26.168
		V1806.548z"/>
	<path style="fill-rule:evenodd;clip-rule:evenodd;" d="M2583.552,1213.951l25.852-15.932
		c35.153-21.662,46.195-68.148,24.533-103.303l-11.773-19.11c-21.657-35.155-68.112-46.138-103.303-24.533l-155.618,95.532
		c1.583,1.79,2.845,3.963,3.7,6.582l13.275,40.658l164.415-100.952c12.08-7.418,28.27-3.582,35.712,8.485l11.773,19.11
		c7.437,12.062,3.582,28.275-8.485,35.707l-30.713,18.927c-18.317,11.282-42.255,20.238-26.84,46.942
		C2539.119,1244.655,2563.43,1226.343,2583.552,1213.951"/>
	<path style="fill-rule:evenodd;clip-rule:evenodd;" d="M2661.49,2032.563l-101.678-311.4l-185.802-569.011
		c-0.067-0.283-0.134-0.572-0.208-0.85l-0.595-1.828c-0.09-0.27-0.18-0.53-0.283-0.803c-0.832-2.065-1.962-3.979-3.337-5.683
		c-5.003-5.755-13.275-7.668-21.981-8.013c-10.365,2.045-18.18,11.178-18.18,22.143c0,0.623,0.029,1.242,0.075,1.857
		c0.025,1.313,0.265,2.722,0.762,4.238v0.008c0.165,0.591,0.354,1.172,0.567,1.738l287.385,881.77
		c3.885,11.9,19.872,23.408,28.725,14.555C2655.787,2052.434,2665.379,2044.464,2661.49,2032.563"/>
	<path style="fill-rule:evenodd;clip-rule:evenodd;" d="M2012.384,2421.996c618.228,0,1119.398,14.377,1119.398,32.112
		c0,17.74-501.17,32.117-1119.398,32.117c-618.226,0-1119.396-14.377-1119.396-32.117
		C892.988,2436.372,1394.158,2421.996,2012.384,2421.996z"/>
	<path style="fill:none;stroke:#332C2B;stroke-width:0.5669;stroke-miterlimit:2.6131;" d="M2012.384,2421.996
		c618.228,0,1119.398,14.377,1119.398,32.112c0,17.74-501.17,32.117-1119.398,32.117c-618.226,0-1119.396-14.377-1119.396-32.117
		C892.988,2436.372,1394.158,2421.996,2012.384,2421.996z"/>
	<path style="fill-rule:evenodd;clip-rule:evenodd;" d="M3232.732,2529.674v270.095h-65.792v-161.982l-60.406,161.982h-53.097
		l-60.795-162.363v162.363h-65.792v-270.095h77.722l75.793,186.988l75.033-186.988H3232.732z M2720.242,2529.674v161.595
		c0,16.162,3.978,28.602,11.93,37.322c7.952,8.722,19.62,13.082,35.011,13.082c15.389,0,27.19-4.36,35.397-13.082
		c8.205-8.72,12.312-21.16,12.312-37.322v-161.595h65.797v161.211c0,24.108-5.132,44.5-15.392,61.172
		c-10.261,16.672-24.048,29.243-41.363,37.71c-17.315,8.462-36.613,12.695-57.901,12.695c-21.289,0-40.337-4.172-57.137-12.505
		c-16.8-8.335-30.072-20.902-39.818-37.702c-9.75-16.805-14.626-37.262-14.626-61.37v-161.211H2720.242z M2516.716,2802.462
		c-19.748,0-37.45-3.208-53.093-9.618c-15.647-6.412-28.152-15.903-37.517-28.47c-9.364-12.567-14.3-27.703-14.81-45.402h70.02
		c1.025,10.002,4.489,17.637,10.389,22.895c5.901,5.258,13.596,7.885,23.083,7.885c9.747,0,17.448-2.245,23.083-6.733
		c5.647-4.488,8.467-10.71,8.467-18.661c0-6.665-2.243-12.184-6.732-16.54c-4.483-4.365-10.002-7.955-16.54-10.775
		c-6.543-2.822-15.842-6.028-27.898-9.62c-17.442-5.385-31.672-10.772-42.708-16.162c-11.027-5.382-20.518-13.336-28.47-23.848
		c-7.95-10.517-11.928-24.242-11.928-41.173c0-25.135,9.108-44.822,27.322-59.055c18.207-14.24,41.933-21.355,71.177-21.355
		c29.755,0,53.737,7.115,71.948,21.355c18.208,14.233,27.955,34.048,29.245,59.441h-71.183c-0.515-8.722-3.718-15.582-9.618-20.583
		c-5.902-5.003-13.465-7.508-22.702-7.508c-7.95,0-14.362,2.122-19.237,6.35c-4.877,4.238-7.31,10.328-7.31,18.278
		c0,8.722,4.102,15.52,12.312,20.395c8.212,4.872,21.033,10.13,38.477,15.772c17.437,5.9,31.61,11.542,42.515,16.927
		c10.898,5.39,20.323,13.21,28.28,23.472c7.952,10.26,11.928,23.47,11.928,39.632c0,15.388-3.915,29.368-11.74,41.935
		c-7.818,12.567-19.172,22.569-34.048,30.009C2554.549,2798.744,2536.979,2802.462,2516.716,2802.462z M2280.476,2650.487
		c12.572,0,21.932-2.953,28.092-8.848c6.157-5.902,9.231-14.24,9.231-25.007c0-10.777-3.075-19.115-9.231-25.012
		c-6.16-5.9-15.52-8.848-28.092-8.848h-35.776v67.715H2280.476z M2384.744,2616.632c0,15.646-3.586,29.943-10.767,42.896
		c-7.187,12.95-18.213,23.4-33.09,31.357c-14.882,7.952-33.35,11.93-55.408,11.93h-40.78v96.953h-65.793v-270.095h106.573
		c21.548,0,39.761,3.718,54.638,11.16c14.876,7.437,26.031,17.697,33.472,30.78
		C2381.031,2584.696,2384.744,2599.701,2384.744,2616.632z M2131.194,2529.674v270.095h-65.792v-270.095H2131.194z
		 M2018.082,2529.674v270.095h-65.792v-161.982l-60.406,161.982h-53.093l-60.793-162.363v162.363h-65.792v-270.095h77.722
		l75.793,186.988l75.028-186.988H2018.082z M1569.849,2582.385v54.637h88.107v50.788h-88.107v59.248h99.648v52.71h-165.44v-270.095
		h165.44v52.711H1569.849z M1318.993,2651.257h40.782c12.057,0,21.098-2.953,27.127-8.848c6.028-5.902,9.043-14.235,9.043-25.012
		c0-10.262-3.015-18.34-9.043-24.237c-6.028-5.9-15.07-8.853-27.127-8.853h-40.782V2651.257z M1390.941,2799.769l-56.173-101.957
		h-15.775v101.957h-65.792v-270.095h110.423c21.289,0,39.435,3.718,54.44,11.16c15.005,7.437,26.23,17.637,33.67,30.585
		c7.432,12.955,11.155,27.383,11.155,43.285c0,17.953-5.065,33.988-15.193,48.095c-10.135,14.107-25.078,24.108-44.825,30.015
		l62.328,106.955H1390.941z M1078.526,2742.444c21.547,0,38.797-7.187,51.75-21.548c12.955-14.367,19.427-33.345,19.427-56.938
		c0-23.858-6.472-42.903-19.427-57.142c-12.953-14.23-30.203-21.355-51.75-21.355c-21.803,0-39.18,7.058-52.135,21.165
		c-12.948,14.107-19.427,33.219-19.427,57.332c0,23.853,6.478,42.897,19.427,57.132
		C1039.346,2735.324,1056.723,2742.444,1078.526,2742.444z M1078.526,2802.462c-25.39,0-48.672-5.902-69.832-17.698
		c-21.162-11.797-37.962-28.28-50.405-49.44c-12.435-21.162-18.657-44.953-18.657-71.367c0-26.425,6.222-50.15,18.657-71.183
		c12.443-21.033,29.243-37.45,50.405-49.247c21.16-11.802,44.442-17.698,69.832-17.698c25.393,0,48.67,5.896,69.835,17.698
		c21.162,11.797,37.828,28.213,50.018,49.247c12.183,21.033,18.268,44.758,18.268,71.183c0,26.413-6.15,50.205-18.467,71.367
		c-12.308,21.16-28.98,37.643-50.013,49.44C1127.135,2796.561,1103.92,2802.462,1078.526,2802.462z M2763.82,2858.332h-12.207
		v99.388h16.038v-70.143l56.372,70.143h12.067v-99.388h-15.903v70.707L2763.82,2858.332z M2632.071,2922.362h-42.023l21.01-47.281
		L2632.071,2922.362z M2647.407,2957.72h16.898l-44.583-99.388h-17.325l-44.583,99.388h16.893l9.378-20.873h53.807L2647.407,2957.72
		z M2474.909,2870.965c-10.128-10.035-22.388-15.052-36.78-15.052c-16.28,0-29.058,5.088-38.333,15.265
		c-9.273,10.172-13.913,22.79-13.913,37.837c0,6.818,1.04,13.187,3.123,19.097c2.083,5.915,5.158,11.263,9.227,16.045
		c4.072,4.78,9.538,8.57,16.404,11.362c6.86,2.792,14.692,4.185,23.493,4.185c15.525,0,28.542-5.773,39.053-17.318v-40.753h-42.458
		v14.202h27.69v20.164c-7.007,5.868-15.1,8.802-24.285,8.802c-12.113,0-21.245-3.458-27.402-10.365
		c-6.15-6.912-9.227-15.384-9.227-25.418c-0.094-10.88,3.17-20.021,9.798-27.4c6.625-7.385,15.569-11.075,26.83-11.075
		c4.74,0,9.54,0.922,14.42,2.768c4.87,1.843,9.013,4.47,12.415,7.88L2474.909,2870.965z M2213.669,2908.732
		c0-11.168,3.098-20.253,9.302-27.263c6.198-7.001,14.882-10.503,26.05-10.503c7.668,0.095,14.225,2.055,19.668,5.892
		c5.442,3.837,9.322,8.495,11.645,13.988c2.315,5.49,3.473,11.453,3.473,17.887c0,10.413-2.93,19.097-8.802,26.055
		c-5.863,6.96-14.622,10.432-26.263,10.432c-5.872,0-11.102-1.062-15.695-3.193c-4.587-2.125-8.253-4.965-10.998-8.513
		c-2.745-3.548-4.805-7.432-6.175-11.645C2214.496,2917.657,2213.762,2913.277,2213.669,2908.732z M2249.021,2856.48
		c-14.952,0-27.207,4.9-36.77,14.698c-9.562,9.798-14.344,22.265-14.344,37.412c0,6.718,1.063,13.086,3.193,19.102
		c2.137,6.005,5.212,11.428,9.232,16.252c4.022,4.833,9.35,8.683,15.973,11.575c6.623,2.887,14.108,4.332,22.437,4.332
		c8.328,0,15.803-1.403,22.431-4.19c6.628-2.797,11.948-6.605,15.973-11.428c4.025-4.833,7.1-10.3,9.227-16.403
		c2.13-6.104,3.193-12.562,3.193-19.38c0-14.385-4.398-26.622-13.2-36.703C2277.561,2861.669,2265.112,2856.575,2249.021,2856.48z
		 M2049.547,2858.332v99.388h68.292v-14.768h-52.39v-84.62H2049.547z M1953.717,2872.246c-7.007-11.168-19.357-16.757-37.058-16.757
		c-4.733,0-9.275,0.543-13.63,1.635c-4.357,1.087-8.428,2.72-12.213,4.898c-3.783,2.173-6.817,5.155-9.085,8.943
		c-2.267,3.79-3.405,8.14-3.405,13.063c0,4.072,0.732,7.687,2.202,10.862c1.463,3.17,3.312,5.753,5.537,7.739
		c2.22,1.985,5.135,3.69,8.73,5.112c3.6,1.417,7.03,2.508,10.29,3.265c3.27,0.755,7.172,1.421,11.717,1.988
		c7.952,1.04,14.173,2.768,18.67,5.178c4.498,2.413,6.746,6.132,6.746,11.15c0,3.878-1.298,7.12-3.901,9.722
		c-2.603,2.604-5.702,4.385-9.302,5.33c-3.597,0.945-7.573,1.417-11.925,1.417c-14.202,0-24.515-5.441-30.955-16.326l-11.923,7.952
		c8.135,15.052,22.383,22.577,42.732,22.577c7.385,0,14.032-0.973,19.952-2.915c5.915-1.942,10.932-5.277,15.047-10.005
		c4.12-4.735,6.175-10.655,6.175-17.75c0-5.302-1.063-9.87-3.193-13.701c-2.127-3.835-5.225-6.864-9.298-9.09
		c-4.072-2.22-8.187-3.902-12.35-5.04c-4.167-1.133-9.183-2.132-15.052-2.982c-7.857-1.133-13.847-2.697-17.962-4.682
		c-4.115-1.993-6.175-5.158-6.175-9.515c0-4.64,2.13-8.305,6.386-11.003c4.257-2.697,9.798-4.048,16.617-4.048
		c5.202,0.095,10.007,1.115,14.41,3.052c4.402,1.942,7.785,4.62,10.152,8.021L1953.717,2872.246z M1752.674,2872.809
		c6.157,0,10.838,1.823,14.06,5.465c3.218,3.648,4.828,7.933,4.828,12.852c0,5.017-1.61,9.232-4.828,12.637
		c-3.222,3.412-7.95,5.112-14.197,5.112h-30.245v-36.065H1752.674z M1790.446,2954.875l-29.673-33.08
		c9.18-1.326,15.968-4.852,20.377-10.578c4.403-5.725,6.6-12.518,6.6-20.372c0-8.9-3.1-16.54-9.303-22.932
		c-6.198-6.387-14.787-9.582-25.772-9.582c-5.107,0-12.822-0.029-23.14-0.075c-10.318-0.047-18.033-0.072-23.14-0.072v99.535h15.898
		v-34.362h21.013l30.242,34.362h18.605L1790.446,2954.875z M1593.386,2858.47v58.072c0,9.273-2.555,16.445-7.672,21.515
		c-5.107,5.06-11.73,7.357-19.875,6.883c-7.568-0.288-13.678-2.887-18.312-7.813c-4.64-4.918-6.96-11.783-6.96-20.585v-58.072
		h-15.76v58.072c0,13.442,3.907,23.905,11.712,31.38c7.813,7.478,17.583,11.357,29.32,11.64
		c12.595,0.473,22.955-3.052,31.095-10.577c8.14-7.527,12.213-18.337,12.213-32.443v-58.072H1593.386z M1347.764,2908.732
		c0-11.168,3.1-20.253,9.303-27.263c6.198-7.001,14.882-10.503,26.055-10.503c7.662,0.095,14.22,2.055,19.662,5.892
		c5.443,3.837,9.322,8.495,11.647,13.988c2.315,5.49,3.477,11.453,3.477,17.887c0,10.413-2.933,19.097-8.807,26.055
		c-5.862,6.96-14.622,10.432-26.262,10.432c-5.873,0-11.103-1.062-15.69-3.193c-4.593-2.125-8.258-4.965-11.003-8.513
		c-2.745-3.548-4.805-7.432-6.175-11.645C1348.591,2917.657,1347.859,2913.277,1347.764,2908.732z M1383.123,2856.48
		c-14.958,0-27.213,4.9-36.775,14.698c-9.563,9.798-14.343,22.265-14.343,37.412c0,6.718,1.067,13.086,3.198,19.102
		c2.13,6.005,5.207,11.428,9.227,16.252c4.02,4.833,9.35,8.683,15.973,11.575c6.628,2.887,14.107,4.332,22.437,4.332
		c8.328,0,15.803-1.403,22.432-4.19c6.628-2.797,11.947-6.605,15.977-11.428c4.022-4.833,7.097-10.3,9.223-16.403
		c2.13-6.104,3.193-12.562,3.193-19.38c0-14.385-4.398-26.622-13.2-36.703C1411.658,2861.669,1399.214,2856.575,1383.123,2856.48z
		 M1182.798,2858.332h-18.888v0.71l38.333,57.93v40.748h15.908v-40.748l39.471-57.93v-0.71h-19.172l-28.252,43.866
		L1182.798,2858.332z M833.055,2748.982h86.188v50.786h-151.98v-270.095h65.792V2748.982z"/>
</g>
</svg>
