<?xml version="1.0" encoding="utf-8"?>
<!-- Generator: Adobe Illustrator 27.5.0, SVG Export Plug-In . SVG Version: 6.00 Build 0)  -->
<svg version="1.1" xmlns="http://www.w3.org/2000/svg" xmlns:xlink="http://www.w3.org/1999/xlink" x="0px" y="0px"
	 viewBox="0 0 500 500" style="enable-background:new 0 0 500 500;" xml:space="preserve">
<g id="BACKGROUND">
	<rect style="fill:rgba(0,0,0,0);" width="500" height="500"/>
</g>
<g id="OBJECTS">
	<g>
		<g>
			<g>
				<path style="fill:#FF003E;" d="M324.431,311.917c-9.212-4.607-17.022-14.455-21.189-26.582
					c-0.709,0.205-1.302,0.275-1.716,0.134c-1.715-0.592-1.876-1.946-1.452-3.37v0l0,0c0.109-0.369,0.259-0.747,0.432-1.119
					c0.087-0.186,0.18-0.371,0.277-0.553c0.097-0.182,0.197-0.36,0.3-0.533c0.051-0.087,0.112-0.195,0.179-0.318
					c0.067-0.123,0.141-0.261,0.219-0.408c-0.115-0.504-0.217-1.008-0.319-1.511l-3.061-0.33c0.415,3.194,1.091,6.425,2.067,9.646
					c3.999,13.207,12.37,24.084,22.393,29.096c3.208,1.605,6.459,2.547,9.673,2.853c0,0,0,0,0,0c0,0,0,0,0,0
					c1.019-0.151,2.027-0.37,3.02-0.672c0.331-0.1,0.66-0.21,0.987-0.329c1.594-0.581,3.097-1.345,4.507-2.271
					c1.409-0.926,2.724-2.013,3.94-3.241c-0.749,0.377-1.515,0.722-2.309,1.011C336.722,315.483,330.517,314.96,324.431,311.917z"/>
				<path style="fill:#FF003E;" d="M369.674,258.822c-4.964-16.392-15.151-29.463-27.946-35.862
					c-9.09-4.546-18.553-5.252-27.364-2.042c-0.066,0.024-0.129,0.054-0.194,0.078c0.323,0.887,0.647,1.794,0.964,2.732
					c0.843-0.111,1.69-0.19,2.539-0.234c0.849-0.045,1.701-0.056,2.554-0.034c3.413,0.089,6.853,0.712,10.268,1.868
					c1.707,0.578,3.409,1.289,5.097,2.134c1.824,0.912,3.594,1.962,5.304,3.136c0.57,0.392,1.134,0.797,1.69,1.216
					c10.245,6.376,18.371,17.635,22.568,31.495c5.467,18.053,2.858,36.487-5.533,48.597c0,0,0,0,0,0c0,0,0,0,0,0
					c-0.277,0.495-0.563,0.982-0.855,1.463c-0.879,1.44-1.826,2.813-2.839,4.112c-0.676,0.865-1.38,1.697-2.114,2.494
					c-0.733,0.796-1.495,1.557-2.285,2.28C369.466,311.945,377.587,284.952,369.674,258.822z"/>
				<path style="fill:#FF003E;" d="M302.435,248.498l0.499,0.503c0.4-1.056,0.838-2.08,1.314-3.067
					c-0.038-0.116-0.086-0.25-0.129-0.375C303.518,246.499,302.957,247.479,302.435,248.498L302.435,248.498z"/>
				<path style="fill:#FF003E;" d="M301.347,254.18l-0.952-0.961c-2.066,5.758-3.032,12.354-2.721,19.262l2.699,0.291
					C299.604,266.219,299.981,259.874,301.347,254.18z"/>
				<path style="fill:#FF003E;" d="M288.801,114.351c4.93,0.715,11.714,1.978,13.963,3.749c3.666,2.886,9.513,10.563,13.978,16.168
					c4.467,5.621,18.875,20.992,24.209,31.188c0,0,2.855,4.898,5.77,13.857c2.9,8.978,0.131,16.613-4.896,21.518
					c-5.043,4.906-31.679,10.266-31.679,10.266s0.031,0.068,0.085,0.187c15.359,0.822,31.937-1.825,36.362-6.136
					c7.059-6.88,9.37-16.859,6.181-26.692c-3.008-9.278-6.019-14.504-6.212-14.835c-4.318-8.159-13.659-18.99-19.861-26.178
					c-1.988-2.305-3.705-4.295-4.752-5.613l-1.839-2.324c-4.368-5.535-9.319-11.809-12.981-14.685
					c-2.194-1.723-6.449-2.969-10.799-3.847c-0.321-6.422-3.319-18.092-6.745-21.606c-8.108-8.317-23.931-2.379-25.972-0.774
					c1.063-0.352,2.439-0.662,4.293-0.87c0.632-0.067,1.258-0.12,1.877-0.159c1.232-0.078,2.434-0.1,3.591-0.06
					c0.586,0.02,1.161,0.056,1.723,0.109c4.079,0.379,7.417,1.642,9.14,4.014c2.657,3.667,6.424,16.644,5.76,20.469
					C289.892,112.712,289.447,113.489,288.801,114.351z"/>
			</g>
			<g>
				<path style="fill:#133A50;" d="M340.323,329.129c4.174-1.521,7.924-3.875,11.203-6.877c0.79-0.723,1.552-1.483,2.285-2.28
					c0.733-0.797,1.438-1.629,2.114-2.494c1.013-1.298,1.961-2.671,2.839-4.112c0.293-0.48,0.578-0.968,0.855-1.463c0,0,0,0,0,0
					c-3.878,5.597-8.989,9.846-15.114,12.078c-2.082,0.758-4.206,1.264-6.36,1.521c-5.82,0.693-11.841-0.442-17.708-3.377
					c-11.774-5.888-21.184-18.038-25.817-33.337c-1.224-4.042-2.039-8.102-2.479-12.106l2.057,0.222l3.903,0.421l3.061,0.33
					l1.033,0.112c-0.273,0.549-0.512,1.016-0.714,1.4c-0.078,0.147-0.151,0.285-0.219,0.408c-0.067,0.123-0.128,0.231-0.179,0.318
					c-0.102,0.173-0.203,0.351-0.3,0.533c-0.097,0.182-0.19,0.366-0.277,0.553c-0.087,0.186-0.168,0.374-0.241,0.561
					c-0.073,0.187-0.137,0.374-0.192,0.558l0,0c0.561,0.143,1.303,0.096,2.141-0.074c2.159-0.436,5.027-1.775,7.616-3.433
					c1.27-0.813,2.472-1.697,3.481-2.585c0.636-0.559,1.193-1.119,1.647-1.661c0.469-0.559,0.827-1.1,1.037-1.602
					c0.506-1.225,0.52-2.409,0.297-3.475c-0.068-0.326-0.154-0.642-0.261-0.943c-0.734-2.069-2.216-3.493-2.216-3.493
					c1.658,0.298,3.055,1.03,4.037,1.684c0.967,0.644,1.529,1.213,1.529,1.213s-0.092-0.77-0.263-2.046
					c-0.017-0.128-0.035-0.259-0.054-0.397c-0.695-5.109-2.484-16.946-4.838-22.76c-0.643-1.586-1.397-3.418-2.183-5.316
					c-0.057-0.137-0.113-0.274-0.17-0.411c-0.091-0.22-0.181-0.436-0.273-0.657c-0.714-1.718-1.443-3.465-2.136-5.119
					c-0.815-1.946-1.571-3.742-2.195-5.223c-0.146-0.348-0.284-0.673-0.414-0.981c-0.079-0.186-0.161-0.381-0.233-0.552
					c-0.58-1.373-0.938-2.217-0.938-2.217c0.756,0.468,1.481,1.036,2.161,1.646c0.103,0.092,0.203,0.188,0.305,0.282
					c0.392,0.366,0.766,0.741,1.12,1.118c1.705,1.819,2.93,3.635,3.286,4.184c0.07,0.107,0.113,0.176,0.113,0.176
					s-0.015-0.086-0.037-0.212c-0.105-0.601-0.449-2.519-0.959-4.87c-0.146-0.671-0.306-1.373-0.477-2.092
					c-0.522-2.197-1.152-4.5-1.844-6.338c-0.38-1.012-0.778-1.892-1.186-2.512c-0.185-0.282-0.384-0.567-0.588-0.853
					c-0.274-0.383-0.562-0.768-0.859-1.149c-1.143-1.464-2.405-2.875-3.41-3.948c-1.078-1.151-1.859-1.912-1.859-1.912
					c4.241,1.02,11.241-0.119,11.241-0.119c-3.533-0.342-5.474-2.552-5.474-2.552c3.635,0.923,16.27-1.038,22.147-3.867
					c0.735-0.354,1.382-0.719,1.875-1.096c1.017-0.776,1.916-1.638,2.718-2.532c3.807-4.239,5.302-9.23,5.397-9.605
					c-0.763,1.156-2.025,2.017-3.488,2.658c-4.408,1.932-10.651,1.874-10.651,1.874c6.103-2.743,9.745-7.221,11.769-10.623
					c1.583-2.662,2.175-4.666,2.175-4.666s-0.314-0.929-0.919-2.45c-0.554-1.375-1.334-3.231-2.308-5.285
					c-2.089-4.447-5.089-9.853-8.618-13.433c-6.926-7.057-23.696-17.061-23.696-17.061c5.275-1.679,10.095,1.069,10.606,1.381
					c-4.963-6.088-17.284-10.621-17.284-10.621c2.292-1.392,5.942-2.487,5.942-2.487c-4.71-2.117-10.297-1.774-10.297-1.774
					c1.809-1.182,5.478-3.246,5.478-3.246c-3.876-1.284-10.612-1.269-13.597-1.189c-2.729,2.475-5.947,5.017-8.455,6.91
					c2.236-0.139,4.354-0.169,6.064-0.054c0,0,5.707,1.629,5.443,4.473c0,0-1.38-1.573-4.235-1.871c0,0-4.391-0.714-9.308-0.587
					c-0.215,0.006-0.442,0.021-0.667,0.035c-0.051,0.003-0.101,0.004-0.153,0.008c-3.058,0.214-6.901,1.143-10.039,1.783
					c-0.442,0.09-0.869,0.174-1.279,0.249c-1.329,0.246-2.47,0.403-3.268,0.37c0,0,1.514,0.635,3.542,1.579
					c1.16,0.54,2.484,1.178,3.798,1.862c0,0-1.518-0.285-3.626-0.64c-2.892-0.487-6.901-1.108-9.686-1.314
					c-0.341-0.025-0.629-0.043-0.94-0.064c-0.698-0.047-1.34-0.083-1.913-0.106c-2.965-0.118-4.51,0.103-7.066,0.898
					c-1.7,0.525-3.391,1.133-4.627,1.568c-0.396,0.963-0.479,2.045-0.458,3.275c-7.877,3.928-14.624,7.798-15.62,9.955
					c-0.236,0.511-0.87,1.066-1.698,1.602c-1.29-0.561-2.847-0.331-3.919,0.708c-0.438,0.424-0.728,0.936-0.901,1.478
					c-1.129,0.347-2.106,0.526-2.621,0.429c-0.751-0.165-1.77-0.037-2.939,0.275c-1.142,0.305-2.431,0.795-3.788,1.4
					c-2.131-0.088-3.762,0.023-4.448,0.538c-2.258,1.676-4.74,5.175-4.74,5.175c-0.2,1.736,0.894,4.657,3.807,4.92
					c2.913,0.263,6.787-0.232,8.558-1.443c1.368-0.936,4.027-1.43,7.931-1.361l-6.55,16.779c-0.093,0.105-0.21,0.183-0.372,0.21
					c-2.496,0.406-4.647,1.998-5.75,4.257l-4.174,8.542c-0.768-0.437-1.543-0.859-2.331-1.253
					c-10.838-5.418-22.758-6.235-33.555-2.301c-25.117,9.149-37.99,41.554-28.699,72.236c5.064,16.72,15.874,30.263,29.657,37.156
					c2.83,1.415,5.736,2.504,8.674,3.289l39.641,12.997l-18.069-12.954c1.112-0.301,2.218-0.633,3.309-1.031
					c10.621-3.869,19.041-11.907,24.533-22.205c-4.966,7.818-11.914,13.86-20.408,16.954c-2.653,0.967-5.38,1.612-8.147,1.942
					c-7.363,0.877-14.988-0.493-22.112-4.055c-12.762-6.383-22.795-19.005-27.527-34.632c-8.66-28.596,3.062-58.699,26.13-67.103
					c9.203-3.354,19.329-2.848,28.699,1.378c0.522,0.235,1.043,0.476,1.56,0.735c0.431,0.216,0.851,0.456,1.276,0.686
					c0.678,0.367,1.348,0.75,2.01,1.152c-0.633-0.457-1.27-0.909-1.921-1.335l2.4-4.913c0.947-1.938,2.667-3.38,4.712-4.008
					c0.096,0.412,0.189,0.824,0.339,1.23c0.18,0.488,0.197,0.91,0.147,1.217c-0.02,0.126-0.049,0.236-0.087,0.317l-4.008,8.483
					l-0.071,0.15l-2.198,4.652c-0.071-0.048-0.14-0.1-0.211-0.147c-1.115-0.744-2.263-1.423-3.434-2.051
					c-0.336-0.18-0.667-0.372-1.008-0.542c-0.615-0.307-1.236-0.553-1.854-0.824c-8.149-3.562-16.604-3.963-24.583-1.056
					c-4.14,1.508-7.857,3.825-11.103,6.757c1.858-1.234,3.846-2.266,5.951-3.075c0.162-0.062,0.319-0.133,0.482-0.193
					c0.975-0.355,1.958-0.656,2.948-0.903c0.99-0.247,1.987-0.441,2.989-0.581c1.002-0.14,2.009-0.226,3.019-0.259
					c5.052-0.164,10.186,1.009,15.181,3.506c0.82,0.41,1.622,0.861,2.415,1.333l-13.418,27.462c-0.371,0.083-0.74,0.188-1.106,0.322
					c-0.353,0.129-0.695,0.278-1.026,0.447c-0.331,0.169-0.65,0.357-0.957,0.564c-0.614,0.413-1.181,0.897-1.695,1.443
					c-3.084,3.276-4.286,8.752-2.684,14.041c0.534,1.763,1.329,3.338,2.309,4.677c2.941,4.017,7.549,5.909,11.786,4.365
					c2.118-0.772,3.843-2.292,5.058-4.264c0.405-0.657,0.754-1.364,1.042-2.111c0.288-0.746,0.515-1.531,0.677-2.345
					c0.162-0.813,0.259-1.654,0.286-2.513c0.041-1.287-0.074-2.612-0.359-3.938c-0.095-0.442-0.209-0.884-0.343-1.325
					c-0.098-0.323-0.214-0.632-0.328-0.942l12.211-25.847c0.529,0.652,1.044,1.321,1.544,2.007c1.001,1.371,1.943,2.808,2.823,4.305
					c1.76,2.994,3.267,6.228,4.483,9.657c0.304,0.857,0.589,1.726,0.856,2.607c1.404,4.636,2.208,9.311,2.46,13.893
					c0.034,0.62,0.058,1.239,0.072,1.856c0.028,1.234,0.016,2.459-0.035,3.674c-0.076,1.822-0.24,3.62-0.489,5.386
					c-2.154,15.299-10.653,28.129-23.373,32.763c-0.408,0.148-0.818,0.287-1.229,0.416c-1.233,0.387-2.479,0.687-3.734,0.901
					c-2.789,0.476-5.621,0.53-8.46,0.184c0,0,0,0,0,0c6.665,1.89,13.434,1.678,19.889-0.674
					c15.893-5.79,25.674-23.329,25.665-42.937c0-1.128-0.032-2.263-0.098-3.403c-0.27-4.654-1.084-9.391-2.506-14.086
					c-2.883-9.52-7.917-17.785-14.384-23.927l2.043-4.324l0.28-0.593l4.692-9.931c0.38-0.804,0.581-1.687,0.689-2.591
					c0.044-0.366,0.068-0.737,0.071-1.111c0.007-0.747-0.071-1.503-0.245-2.252c-0.087-0.375-0.198-0.747-0.334-1.116
					c-0.013-0.036-0.018-0.068-0.029-0.104v0c-0.117-0.357-0.15-0.675-0.133-0.936l0,0l11.175,20.411l20.411,37.281
					c-0.39,0.182-0.799,0.346-1.224,0.495c-0.425,0.149-0.866,0.282-1.319,0.4c-0.453,0.118-0.917,0.222-1.389,0.313
					c-0.944,0.182-1.92,0.311-2.896,0.4c-0.488,0.044-0.976,0.078-1.46,0.104c-0.968,0.05-1.92,0.066-2.825,0.057
					c-1.446-0.019-2.929-0.085-4.318-0.102c-0.463-0.006-0.915-0.006-1.352,0.003c0.187,2.377,0.248,4.738,0.177,7.07
					c15.354,5.974,20.547,4.848,20.547,4.848c-4.831-2.561-7.94-5.326-7.94-5.326s6.696,3.118,9.716,2.18l6.423,11.732l2.415,4.411
					c-2.502,3.029-3.493,7.724-2.241,12.364c0.951,3.523,3.011,6.301,5.525,7.909c2.279,1.457,4.929,1.956,7.483,1.138
					c4.323-1.384,7.03-6.087,6.978-11.371c-0.013-1.28-0.182-2.593-0.536-3.902c-0.091-0.338-0.2-0.664-0.311-0.988
					c-0.51-1.491-1.225-2.825-2.086-3.975c-0.885-1.182-1.922-2.162-3.058-2.902c-0.957-0.623-1.98-1.07-3.038-1.323
					c-0.774-0.186-1.563-0.274-2.358-0.239c-0.147,0.006-0.294,0.023-0.441,0.038c-0.574,0.056-1.148,0.16-1.717,0.342
					c-0.932,0.298-1.783,0.759-2.553,1.338c1.057-1.131,2.322-2.009,3.76-2.555l-5.766-9.887l-4.107-7.041l-5.879-10.079
					l-33.927-58.17l1.436-3.68l0.197,0.199l10.151,10.249l29.984,30.272v0c-0.263,0.784-0.54,1.6-0.822,2.426
					c-0.276,0.808-0.558,1.63-0.847,2.463c-0.294,0.847-0.592,1.703-0.893,2.557c-0.903,2.563-1.829,5.116-2.708,7.423v0
					l6.549,11.961c1.362-1.686,3.036-3.577,5.184-5.674c2.67-2.612,4.595-5.662,5.993-8.581l3.018,3.047l5.636,5.69l-8.98,25.336
					l-0.315,0.89c0.288,0.019,0.574,0.059,0.86,0.104c2.049,0.327,4.01,1.32,5.691,2.835l8.337-23.519l1.237,1.249l0.616,0.621v0
					c-0.282,0.484-0.536,0.994-0.802,1.492c-0.498,0.932-0.969,1.886-1.412,2.863c-0.371,0.818-0.724,1.65-1.056,2.498
					c-1.034,2.638-1.898,5.4-2.541,8.284c-0.737,3.307-1.209,6.754-1.398,10.291c0.594,1.074,1.08,2.254,1.44,3.521
					c0.021,0.072,0.047,0.14,0.067,0.212c0.422,1.565,0.602,3.134,0.586,4.657c-0.022,2.196-0.471,4.291-1.288,6.127
					c0.498,3.084,1.196,6.185,2.132,9.274c4.963,16.391,15.149,29.462,27.944,35.862c2.115,1.057,4.251,1.883,6.393,2.524
					l40.618,16.039l-22.061-15.756C338.717,329.667,339.523,329.421,340.323,329.129z M197.797,203.21
					c1.101,0.781,2.171,1.619,3.206,2.516c0.091,0.079,0.18,0.159,0.271,0.239l-11.72,24.809c-0.194-0.142-0.385-0.288-0.585-0.417
					c-0.291-0.187-0.588-0.358-0.89-0.514c-0.905-0.467-1.854-0.79-2.822-0.968L197.797,203.21z M194,244.697
					c-0.082,0.565-0.209,1.112-0.379,1.635c-0.761,2.354-2.373,4.215-4.551,4.912c-1.46,0.467-2.966,0.344-4.345-0.249
					c-0.69-0.297-1.348-0.711-1.952-1.228c-0.303-0.258-0.592-0.542-0.865-0.85c-0.273-0.308-0.53-0.639-0.769-0.993
					c-0.233-0.346-0.449-0.712-0.644-1.097c-0.195-0.385-0.37-0.79-0.522-1.212c-0.101-0.281-0.192-0.571-0.272-0.867
					c-0.214-0.791-0.305-1.579-0.344-2.359c-0.012-0.247-0.02-0.493-0.019-0.737c0.001-0.244,0.01-0.486,0.03-0.725
					c0.031-0.363,0.087-0.717,0.154-1.066c0.161-0.831,0.417-1.62,0.768-2.337c0.249-0.509,0.543-0.985,0.878-1.418
					c0.335-0.433,0.711-0.824,1.124-1.164c0.154-0.127,0.311-0.248,0.473-0.363c0.324-0.23,0.664-0.433,1.026-0.598
					c0.181-0.082,0.367-0.155,0.559-0.217c0.756-0.242,1.523-0.322,2.279-0.263c0.252,0.02,0.503,0.055,0.751,0.105
					c0.25,0.05,0.496,0.117,0.741,0.196l-3.062,6.482c-0.243,0.514-0.352,1.057-0.341,1.589c0.011,0.532,0.141,1.053,0.377,1.525
					c0.157,0.315,0.36,0.608,0.606,0.868c0.204,0.216,0.446,0.4,0.705,0.565c0.118,0.075,0.231,0.155,0.361,0.216
					c0.472,0.224,0.969,0.335,1.46,0.344c0.164,0.003,0.327-0.005,0.488-0.024c0.296-0.035,0.586-0.107,0.862-0.213
					c0.208-0.08,0.408-0.178,0.598-0.296c0.57-0.351,1.048-0.867,1.356-1.517l1.893-4.006c0.11,0.301,0.21,0.609,0.296,0.927
					C194.129,241.768,194.205,243.286,194,244.697z M301.852,239.718c0.474,1.15,0.904,2.217,1.28,3.18
					c0.397,1.019,0.73,1.913,0.987,2.661c0.043,0.125,0.09,0.259,0.129,0.375c0.121,0.366,0.22,0.689,0.295,0.965
					c0.075,0.276,0.126,0.504,0.15,0.681c0.039,0.281,0.098,0.59,0.173,0.922c0.228,0.996,0.606,2.202,1.036,3.497l-2.968-2.997
					l-0.499-0.503l0,0l-2.056-2.076l-2.501-2.525c1.042-1.908,2.203-3.702,3.486-5.356
					C301.531,238.942,301.694,239.335,301.852,239.718z M274.629,138.688c0.832-0.087,1.73-0.187,2.643-0.298
					c0.913-0.111,1.841-0.233,2.735-0.365c0.791-0.117,1.555-0.241,2.255-0.372c0.701-0.131,1.339-0.268,1.877-0.412
					c0.256-0.068,0.507-0.144,0.753-0.227c0.492-0.165,0.965-0.357,1.415-0.565c0.674-0.312,1.297-0.661,1.855-1.014
					c0.558-0.352,1.052-0.708,1.471-1.034c0.418-0.326,0.761-0.62,1.016-0.851c0.34-0.308,0.524-0.502,0.524-0.502l0,0
					c0,0-0.155,0.474-0.415,1.137c-0.389,0.995-1.014,2.418-1.702,3.309c-0.076,0.099-0.154,0.192-0.232,0.276h0
					c0,0,0.261-0.034,0.677-0.116c0.083-0.016,0.173-0.035,0.268-0.055c0.19-0.041,0.401-0.09,0.628-0.148
					c0.484-0.125,1.036-0.292,1.592-0.51c0.417-0.164,0.836-0.357,1.229-0.583c0.262-0.151,0.514-0.316,0.746-0.498
					c0.812-0.635,1.387-1.465,1.378-2.542c-0.006-0.79-0.485-1.747-1.229-2.759c-0.425-0.578-0.937-1.175-1.497-1.769
					c-0.42-0.446-0.867-0.89-1.325-1.324c-0.305-0.289-0.615-0.574-0.925-0.852c-0.31-0.278-0.619-0.548-0.924-0.809
					c-0.022-0.018-0.043-0.036-0.064-0.054c-2.106-1.798-3.961-3.126-3.965-3.129l0,0c0,0,0.153,0.075,0.424,0.216
					c0.882,0.457,3.016,1.606,5.239,3.104c0.855,0.576,1.723,1.205,2.537,1.866c0.326,0.264,0.643,0.534,0.948,0.807
					c0.152,0.137,0.301,0.274,0.447,0.413c0.254,0.243,0.497,0.488,0.726,0.734c0.686,0.74,1.244,1.496,1.597,2.245
					c0.314,0.666,0.536,1.287,0.68,1.867c0.048,0.193,0.087,0.382,0.118,0.566c0.075,0.446,0.105,0.867,0.087,1.259
					c-0.01,0.208-0.031,0.408-0.065,0.601c-0.088,0.511-0.264,0.966-0.499,1.377c-0.12,0.21-0.25,0.412-0.402,0.597
					c-0.337,0.41-0.748,0.758-1.211,1.048c-0.154,0.097-0.314,0.187-0.479,0.271c-0.33,0.168-0.679,0.311-1.042,0.429
					c-0.665,0.217-1.624,0.353-2.777,0.425c-0.384,0.024-0.79,0.041-1.214,0.051c-0.84,0.021-1.751,0.016-2.702-0.01
					c-0.966-0.026-1.974-0.073-2.993-0.136c-0.999-0.062-2.005-0.139-2.997-0.227c-1.563-0.139-3.082-0.303-4.441-0.476
					c-0.476-0.061-0.92-0.114-1.335-0.163c-0.415-0.048-0.802-0.091-1.165-0.129c-0.87-0.092-1.587-0.155-2.175-0.198
					c-0.196-0.014-0.378-0.027-0.546-0.037c-0.672-0.041-1.128-0.051-1.422-0.05c-0.196,0.001-0.32,0.006-0.388,0.01
					C270.656,139.062,272.391,138.922,274.629,138.688z M284.533,229.227l-0.666,2.563l-61.568-64.197l2.011-5.153
					c0.059-0.152,0.107-0.308,0.152-0.465c0.044-0.157,0.085-0.315,0.13-0.472l0,0c0.439,0.048,0.883,0.097,1.332,0.147
					c2.689,0.299,5.518,0.621,8.221,0.854c4.056,0.349,7.831,0.496,10.433,0.056c0.598-0.099,1.29-0.244,2.057-0.428
					c0.768-0.184,1.612-0.407,2.515-0.663c1.356-0.383,2.846-0.84,4.415-1.345c2.092-0.674,4.325-1.438,6.567-2.234
					c2.03-0.722,4.063-1.47,6.01-2.207c0.74-0.28,1.472-0.559,2.181-0.833c0.042-0.573,0.061-1.16,0.052-1.75
					c-0.004-0.295-0.039-0.589-0.058-0.884c-0.019-0.295-0.023-0.592-0.058-0.884c-0.703-5.9-0.703-5.9-0.703-5.9
					s-0.112,0.658-0.441,1.6c-0.094,0.269-0.206,0.562-0.338,0.868c-0.198,0.46-0.442,0.953-0.739,1.45
					c-0.397,0.662-0.889,1.329-1.497,1.933c-0.203,0.201-0.418,0.396-0.647,0.58c-0.687,0.554-1.497,1.021-2.448,1.331l0,0
					c0,0,0.205-0.811,0.413-2.056c0.125-0.747,0.25-1.651,0.332-2.63c0.027-0.326,0.05-0.661,0.067-1.001
					c0.049-1.02,0.041-2.087-0.069-3.121c-0.146-1.379-0.473-2.698-1.083-3.766c0,0-0.624,0.475-1.619,1.24
					c-0.373,0.287-0.799,0.614-1.264,0.972c-0.929,0.716-2.014,1.555-3.149,2.439c-0.378,0.294-0.762,0.594-1.148,0.895
					c-0.385,0.301-0.772,0.605-1.157,0.907c-1.346,1.059-2.663,2.107-3.783,3.018c-0.639,0.521-1.215,0.998-1.693,1.406
					c-0.132,0.112-0.276,0.219-0.43,0.323c-0.154,0.103-0.317,0.202-0.488,0.298c0,0,0,0,0,0c3.426-0.305,6.506-1.622,6.506-1.622
					l0,0c0,0-0.166,0.171-0.525,0.452c-0.013,0.01-0.033,0.024-0.046,0.034c-0.111,0.086-0.233,0.178-0.38,0.282
					c-0.134,0.095-0.293,0.2-0.457,0.307c-0.038,0.025-0.066,0.045-0.105,0.07c-0.134,0.085-0.294,0.179-0.447,0.27
					c-0.089,0.053-0.163,0.102-0.259,0.156c-0.519,0.297-1.138,0.618-1.866,0.944c-0.243,0.109-0.497,0.219-0.764,0.328
					c-0.801,0.329-1.714,0.658-2.747,0.97c-0.537,0.162-1.196,0.288-1.943,0.383c-0.747,0.095-1.583,0.16-2.475,0.199
					c-0.357,0.016-0.723,0.028-1.095,0.037c-0.745,0.017-1.518,0.02-2.3,0.012c-0.783-0.008-1.576-0.027-2.363-0.054
					c-0.393-0.014-0.785-0.029-1.174-0.046c-1.165-0.051-2.296-0.117-3.338-0.187c-0.347-0.023-0.685-0.047-1.01-0.07
					c-0.325-0.024-0.638-0.047-0.937-0.071c-1.518,0.013-2.959,0.013-4.269,0.017c-0.124-0.373-0.261-0.741-0.416-1.104
					c-0.155-0.363-0.327-0.719-0.519-1.069l0,0c0.065-0.048,0.128-0.097,0.192-0.146c0.048-0.037,0.098-0.073,0.146-0.111
					c0.125-0.097,0.236-0.199,0.355-0.298c0.402-0.335,0.781-0.679,1.104-1.037c0.209-0.232,0.399-0.467,0.568-0.707
					c0.168-0.239,0.315-0.482,0.437-0.728c0.294-0.35,0.963-0.855,1.926-1.478c1.349-0.871,3.275-1.972,5.561-3.198
					c0.653-0.35,1.335-0.711,2.042-1.079c0.707-0.369,1.437-0.745,2.187-1.126c0.059,0.14,0.128,0.275,0.207,0.406
					c0.237,0.392,0.573,0.741,1.065,1.033c0.918,0.551,2.831,0.379,4.815-0.066c2.551-0.573,5.219-1.599,6.044-2.126
					c0.277-0.174,0.582-0.429,0.901-0.731c0.156-0.148,0.317-0.309,0.479-0.475c0.326-0.334,0.661-0.695,0.994-1.057
					c0.17-0.185,0.341-0.369,0.509-0.548c0.222-0.236,0.44-0.463,0.652-0.672c0.529-0.522,1.018-0.931,1.414-1.073
					c0.052-0.02,0.137-0.032,0.252-0.037c0.229-0.01,0.577,0.007,1.024,0.048c0.224,0.02,0.472,0.047,0.742,0.078
					c1.082,0.126,2.52,0.335,4.151,0.592c0.386,0.061,0.783,0.124,1.189,0.189c0.406,0.065,0.82,0.133,1.242,0.202
					c0.777,0.861,1.698,1.848,2.711,2.913c1.512,1.59,3.231,3.352,4.985,5.121c0.595,0.601,1.195,1.202,1.792,1.798
					c1.177,1.175,2.345,2.328,3.451,3.41c1.424,1.393,2.745,2.665,3.851,3.71c0.83,0.784,1.539,1.439,2.08,1.922
					c0.181,0.161,0.342,0.302,0.484,0.423c0.159,0.135,0.337,0.321,0.533,0.554c0.196,0.233,0.409,0.512,0.637,0.831
					c1.254,1.757,2.954,4.739,4.689,7.984c0.315,0.59,0.632,1.189,0.947,1.791c0.315,0.602,0.629,1.206,0.939,1.808
					c0.465,0.903,0.921,1.799,1.361,2.67c0.293,0.58,0.578,1.149,0.853,1.701c0.413,0.827,0.803,1.616,1.162,2.346
					c0.599,1.217,1.111,2.272,1.499,3.075c-0.995,0.512-2.067,1.065-3.185,1.642c-1.119,0.577-2.284,1.18-3.465,1.792
					c-0.591,0.306-1.185,0.614-1.78,0.923c-2.082,1.081-4.168,2.167-6.092,3.176c-0.455,0.239-0.898,0.472-1.333,0.701
					c-0.181,0.095-0.36,0.19-0.538,0.283c-0.939,0.495-1.822,0.963-2.621,1.39c-0.295,0.158-0.574,0.307-0.845,0.453
					c-0.261,0.14-0.51,0.275-0.747,0.404c-0.247,0.134-0.485,0.264-0.704,0.383c-0.266,0.146-0.503,0.278-0.723,0.401
					c-0.097,0.054-0.188,0.106-0.276,0.155c-0.154,0.087-0.292,0.167-0.416,0.239c-0.094,0.055-0.179,0.105-0.254,0.151
					c-0.031,0.019-0.067,0.04-0.095,0.057c-0.635,0.395-1.234,0.833-1.811,1.294c-0.939,0.749-1.808,1.572-2.591,2.468
					c-0.843,0.965-1.595,2.007-2.254,3.105c-0.66,1.098-1.227,2.253-1.701,3.444c-0.237,0.596-0.45,1.201-0.64,1.812
					c-0.051,0.167-0.11,0.356-0.175,0.567c-0.066,0.21-0.139,0.441-0.218,0.691c-0.159,0.5-0.343,1.075-0.548,1.709l12.756,12.633
					c0.273-0.872,0.528-1.737,0.757-2.544c0.114-0.404,0.222-0.793,0.323-1.161c0.05-0.184,0.098-0.363,0.145-0.536
					c0.093-0.346,0.177-0.668,0.253-0.959c0.076-0.291,0.142-0.553,0.199-0.777c0.141-0.561,0.22-0.891,0.22-0.891
					c-0.848-0.554-1.928-1.371-2.948-2.177c-0.34-0.269-0.673-0.536-0.988-0.792c-1.262-1.023-2.241-1.862-2.241-1.862
					s0.817,0.294,2.198,0.6c0.46,0.102,0.983,0.206,1.56,0.3c1.441,0.236,3.216,0.416,5.178,0.377
					c1.177-0.023,2.422-0.126,3.702-0.342c0.149-0.025,0.302-0.064,0.457-0.108c0.155-0.044,0.312-0.094,0.468-0.142
					c0.516,0.314,1.057,0.64,1.591,0.963c1.181,0.713,2.381,1.439,3.572,2.201c0.056,0.126,0.116,0.258,0.174,0.386l-0.56,1.7l0,0
					L284.533,229.227L284.533,229.227z M289.809,233.435c0.21-0.591,0.254-1.199,0.157-1.776c-0.116-0.691-0.189-1.387-0.178-2.077
					c0.007-0.427,0.06-0.849,0.141-1.268c0.049-0.258,0.1-0.517,0.183-0.77l2.766-8.407v0c0.428,0.956,0.867,1.937,1.312,2.935
					c1.336,2.995,2.729,6.137,4.048,9.164c-2.314,1.936-4.411,4.182-6.269,6.694l-2.764-2.791L289.809,233.435z M291.882,265.612
					c0.125-1.918,0.347-3.801,0.646-5.646c0.339-2.09,0.781-4.132,1.335-6.103c0.522-1.855,1.137-3.652,1.842-5.378l2.247,2.269
					l2.443,2.466l0.952,0.961l7.203,7.273c0.033,0.358,0.045,0.694,0.033,1.005c0,0.01,0.001,0.023,0.001,0.033
					c-0.014,0.319-0.056,0.61-0.132,0.863c-0.388,1.298-1.228,3.395-2.214,5.677c-0.395,0.913-0.813,1.855-1.234,2.787
					c-0.211,0.466-0.423,0.93-0.633,1.386l-3.997-0.432l-2.699-0.291l-3.805-0.411l-2.078-0.224
					C291.717,269.739,291.749,267.657,291.882,265.612z"/>
				<path style="fill:#133A50;" d="M320.483,275.262c-0.275,0.164-0.558,0.337-0.839,0.508c-1.696,1.033-3.478,2.176-5.25,3.315
					c-0.287,0.185-0.574,0.369-0.86,0.553c0.057,0.329,0.121,0.658,0.196,0.988c0.075,0.329,0.16,0.658,0.259,0.987
					c0.267,0.882,0.599,1.716,0.987,2.498c0.97,1.954,2.289,3.577,3.808,4.774c0.415,0.327,0.849,0.609,1.29,0.87
					c0.529,0.313,1.072,0.591,1.63,0.804c2.049,0.782,4.261,0.869,6.379,0.097c1.765-0.643,3.257-1.806,4.409-3.317
					c0.461-0.604,0.867-1.264,1.214-1.969c0.348-0.704,0.636-1.453,0.862-2.236s0.389-1.599,0.485-2.437
					c0.048-0.419,0.079-0.844,0.093-1.273c0.027-0.858-0.014-1.733-0.13-2.614c-0.116-0.881-0.305-1.768-0.572-2.649
					c-0.209-0.689-0.457-1.349-0.741-1.977c-0.71-1.571-1.64-2.943-2.721-4.073c-0.487-0.508-1.003-0.967-1.544-1.374
					c-1.623-1.218-3.462-1.958-5.344-2.11h0c0.731,1.447,1.367,2.708,1.553,3.765c0.082,0.485,0.066,0.952-0.011,1.413
					c3.237-0.181,6.411,2.432,7.492,6.436c1.239,4.589-0.741,9.265-4.422,10.443c-3.681,1.178-7.669-1.587-8.908-6.176
					c-0.077-0.286-0.105-0.57-0.158-0.855l4.894,0.528c0.272,0.029,0.542,0.027,0.803-0.004c1.162-0.138,2.178-0.853,2.708-1.954
					c0.749-1.555,0.398-3.463-0.874-4.748l-2.119-2.139c-0.637,1.057-1.771,2.113-3.5,3.247l0.529,0.534l-1.171-0.126
					C320.764,275.081,320.639,275.169,320.483,275.262z"/>
				<path style="fill:#133A50;" d="M317.944,234.278c0.068,0.399,0.118,0.784,0.171,1.171c1.488-0.087,2.997-0.018,4.515,0.21
					c2.024,0.304,4.066,0.89,6.101,1.762c0.509,0.218,1.017,0.454,1.525,0.708c1.216,0.608,2.409,1.308,3.571,2.092
					c0.69,0.465,1.366,0.97,2.034,1.493c0.971,0.76,1.918,1.576,2.837,2.452c0.047,0.045,0.097,0.086,0.144,0.131
					c1.062,1.022,2.087,2.119,3.07,3.283c0.491,0.582,0.972,1.181,1.441,1.796c1.408,1.845,2.715,3.834,3.902,5.945
					c1.979,3.518,3.628,7.372,4.866,11.458c0.678,2.239,1.218,4.483,1.626,6.713c0.408,2.23,0.683,4.447,0.831,6.633
					c0.148,2.186,0.169,4.341,0.068,6.449c-0.101,2.107-0.323,4.166-0.662,6.16c-0.303,1.782-0.712,3.501-1.197,5.166
					c-0.127,0.437-0.262,0.867-0.401,1.295c-1.706,5.239-4.305,9.79-7.699,13.216l0,0c-0.608,0.614-1.241,1.193-1.898,1.734
					c-0.657,0.541-1.338,1.044-2.043,1.507c-1.409,0.926-2.913,1.69-4.507,2.271c-0.327,0.119-0.656,0.229-0.987,0.329
					c-0.992,0.301-2.001,0.521-3.02,0.672c0,0,0,0,0,0c3.462,0.33,6.881-0.081,10.154-1.273
					c16.45-5.992,24.173-29.555,17.217-52.525c-1.006-3.324-2.291-6.499-3.807-9.471c-4.511-8.839-11.086-15.875-18.586-19.626
					C330.744,232.793,324.098,232.211,317.944,234.278z"/>
				<path style="fill:#133A50;" d="M330.494,225.327c-3.415-1.156-6.855-1.779-10.268-1.868c-0.853-0.022-1.705-0.011-2.554,0.034
					c-0.849,0.045-1.695,0.123-2.539,0.234l0,0c0.446,1.322,0.877,2.68,1.272,4.041c7.386-2.352,15.283-1.621,22.93,2.202
					c1.107,0.554,2.186,1.18,3.25,1.842c-0.556-0.419-1.12-0.824-1.69-1.216c-1.71-1.174-3.48-2.224-5.304-3.136
					C333.902,226.616,332.201,225.905,330.494,225.327z"/>
				<path style="fill:#133A50;" d="M251.515,105.524c-0.356-1.704-0.521-4.803,2.232-6.877c1.444-1.096,3.537-1.928,5.793-2.524
					c3.915-1.035,8.324-1.355,10.713-1.069c3.766,0.45,5.614,2.162,5.614,2.162s-4.379-0.155-5.096,0.083
					c0,0,1.589,2.503,1.551,4.745c-0.023,2.223,2.865,3.271,3.971,3.733c1.089,0.464,2.635-1.5,2.635-1.5s1.925,3.636-3.43,9.918
					c-1.708,2.013-4.062,3.358-6.47,4.28c-3.209,1.229-6.516,1.686-8.541,1.762l0.763,6.266c0.036-0.004,0.082-0.011,0.119-0.015
					c2.401-0.28,6.143-0.933,9.965-2.403c1.213-0.466,2.432-1.009,3.618-1.655c5.987-3.255,9.223-7.136,10.273-8.548
					c0.259-0.349,0.39-0.553,0.39-0.553c-0.172,0.165-0.39,0.343-0.629,0.526c-2.189,1.675-6.792,3.918-6.792,3.918
					s1.501-1.451,3.187-3.357c2.02-2.283,4.307-5.221,4.615-7.133c0.567-3.492-0.77-6.517-0.77-6.517
					c-1.322-1.655-7.741-3.077-7.741-3.077c1.959-0.776,5.575-0.414,5.575-0.414c-2.456-3.832-9.632-4.789-9.632-4.789
					c1.322-0.429,6.452-0.394,6.452-0.394c-3.64-2.753-11.926-2.017-11.926-2.017c2.554-1.609,4.965-2.067,7.138-2.462
					c-0.562-0.053-1.137-0.089-1.723-0.109c-0.579-0.02-1.169-0.025-1.768-0.014c-0.599,0.01-1.208,0.035-1.824,0.074
					c-0.618,0.039-1.245,0.093-1.877,0.159c-1.854,0.208-3.23,0.518-4.293,0.87c0,0,0,0,0,0c-3.013,0.998-3.464,2.336-4.778,2.668
					c-12.777,3.166-13.365,6.626-12.024,10.06C247.495,103.087,249.617,104.53,251.515,105.524z"/>
				<polygon style="fill:#133A50;" points="261.598,128.056 261.59,128.048 261.592,128.058 				"/>
				<path style="fill:#133A50;" d="M260.242,118.12c1.564,0.84,5.148,0.266,8.19-1.287c1.314-0.671,2.53-1.522,3.435-2.526
					c3.001-3.327,1.32-5.482-0.664-7.859c-1.984-2.377-0.874-6.209-1.976-8.309c-0.803-1.533-5.697-1.752-9.231-0.667
					c-1.31,0.402-2.439,0.978-3.094,1.74c-2.425,2.817-2.445,6.198-0.736,8.05l-0.157,0.302l-0.004,0.008
					c0.105,0.053,0.186,0.082,0.279,0.124c0.033,0.015,0.068,0.031,0.1,0.045c0.15,0.065,0.289,0.117,0.425,0.162
					c0.067,0.021,0.135,0.043,0.202,0.062c0.131,0.037,0.267,0.072,0.418,0.107c0.09,0.021,0.177,0.041,0.28,0.064
					c0.201,0.045,0.436,0.099,0.71,0.166c0.097,0.023,0.164,0.037,0.273,0.064c1.914,0.485,3.852,4.37,3.645,5.718
					C262.13,115.432,260.242,118.12,260.242,118.12z"/>
			</g>
		</g>
		<g>
			<rect x="82.1" y="313.674" style="fill:#FFFFFF00;" width="341.108" height="69.143"/>
			
				<text transform="matrix(0.9415 0 -0.3369 0.9415 78.2057 373.476)" style="fill:#FFFFFF; font-family:'Oxanium-ExtraBold'; font-size:76.3737px;">THE BIKE</text>
		</g>
		
			<text transform="matrix(1 0 0 1 127.8071 403.4541)" style="fill:#FFFFFF; font-family:'Oxanium-SemiBold'; font-size:21.9232px; letter-spacing:1;">TAGLINE GOES HERE</text>
	</g>
</g>
</svg>
