<?xml version="1.0" encoding="utf-8"?>
<!-- Generator: Adobe Illustrator 27.5.0, SVG Export Plug-In . SVG Version: 6.00 Build 0)  -->
<svg version="1.1" xmlns="http://www.w3.org/2000/svg" xmlns:xlink="http://www.w3.org/1999/xlink" x="0px" y="0px"
	 viewBox="0 0 500 500" style="enable-background:new 0 0 500 500;" xml:space="preserve">
<g id="BACKGROUND">
	<radialGradient id="SVGID_1_" cx="250" cy="250" r="360.14" gradientUnits="userSpaceOnUse">
		<stop  offset="0" style="stop-color:#FFFFFF00"/>
		<stop  offset="0.5415" style="stop-color:#F7F6F900"/>
		<stop  offset="1" style="stop-color:#EDEBF000"/>
	</radialGradient>
	<rect style="fill:url(#SVGID_1_);" width="500" height="500"/>
</g>
<g id="OBJECTS">
	<g>
		<g>
			<g>
				
					<linearGradient id="SVGID_00000168805332058891310990000012418505860859888057_" gradientUnits="userSpaceOnUse" x1="255.3095" y1="83.5343" x2="72.106" y2="83.5343">
					<stop  offset="0" style="stop-color:#212661"/>
					<stop  offset="1" style="stop-color:#E01541"/>
				</linearGradient>
				<path style="fill:url(#SVGID_00000168805332058891310990000012418505860859888057_);" d="M241.509,94.264
					c0.39,0.351,0.7,0.28,0.974,0.046c0.146-0.122,0.433-0.489,1.628-0.635c1.19-0.143,5.696-0.017,11.84,0.685
					c6.144,0.699,12.567,1.965,13.258,2.153c0.69,0.188,0.722-0.225,0.587-0.806c-0.078-0.336-0.328-2.084-0.526-3.509
					c-1.429-0.469-3.521-0.929-6.079-0.819c-2.282,0.096-4.08,0.513-5.525,0.847c-1.936,0.445-3.467,0.8-4.941,0.122l0.001-0.002
					c-0.006-0.004-0.011-0.004-0.015-0.006c0,0-0.145-0.079-0.393-0.223c-0.25-0.151-0.607-0.365-1.037-0.622
					c-0.824-0.504-1.909-1.126-3.088-1.499c-0.588-0.186-1.193-0.303-1.774-0.359c-0.578-0.048-1.127-0.024-1.597,0.025
					c-0.466,0.066-0.858,0.133-1.126,0.213c-0.271,0.068-0.427,0.108-0.427,0.108l-0.019,0.004
					c-0.104,0.027-0.215-0.026-0.255-0.128c-0.044-0.112,0.01-0.239,0.122-0.283c0,0,0.154-0.062,0.426-0.17
					c0.271-0.12,0.67-0.242,1.162-0.379c0.494-0.118,1.085-0.22,1.73-0.249c0.644-0.021,1.337,0.021,2.019,0.144
					c1.365,0.244,2.645,0.779,3.55,1.182c0.439,0.191,0.806,0.353,1.063,0.467c0.23,0.094,0.368,0.149,0.401,0.164v-0.002
					c0.924,0.425,2.065,0.159,3.796-0.239c1.517-0.351,3.403-0.788,5.851-0.892c2.464-0.105,4.538,0.27,6.089,0.716
					c3.586,0.701,7.339,2.719,7.715,2.988c0.382,0.276,0.87,0.151,0.99,0.048c0.119-0.107,0.528-0.485,0.669-0.742
					c0.142-0.256,0.11-0.552-0.083-0.791c-0.192-0.24-5.382-6.439-10.291-11.734c-4.91-5.299-6.832-7.297-9.098-7.247
					c-1.546,0.036-1.673,2.002-1.518,4.385c0.121,1.869-1.954,1.805-3.305,1.687c-1.352-0.121-4.259-0.824-5.795-0.755
					c-1.538,0.068-1.849,0.678-1.872,1.163c-0.024,0.485-0.157,1.969-1.704,2.309c-6.253,1.379-10.003,0.234-11.369-1.885
					c-0.886-1.376-2.257-6.195-0.655-9.232c-2.598,2.674-2.449,7.852,0.348,13.23C236.03,89.118,241.119,93.914,241.509,94.264z"/>
				
					<linearGradient id="SVGID_00000026869146034839532790000013329769524196245945_" gradientUnits="userSpaceOnUse" x1="255.3097" y1="102.7762" x2="72.1133" y2="102.7762">
					<stop  offset="0" style="stop-color:#212661"/>
					<stop  offset="1" style="stop-color:#E01541"/>
				</linearGradient>
				<path style="fill:url(#SVGID_00000026869146034839532790000013329769524196245945_);" d="M268.806,98.192
					c-0.676-0.394-2.541-0.792-4.772-1.13c-12.042-1.83-16.348-1.788-17.711-1.646c-1.616,0.168-2.099,0.771-2.441,1.402
					c-0.343,0.63-1.901,4.806-2.102,5.569c-0.198,0.767,0.12,1.682,0.629,2.449c0.507,0.765,2.046,1.759,4.439,2.571
					c2.394,0.812,4.151,0.351,5.141,0.022c0.99-0.327,5.252-1.59,5.705-1.399c0.494,0.208,2.45,3.883,2.864,4.117
					c0.415,0.236,2.858-0.474,3.201-0.911c2.825-3.608,5.074-8.107,5.441-8.872C269.566,99.603,269.479,98.588,268.806,98.192z"/>
				
					<linearGradient id="SVGID_00000180349443327882331560000010240904165261527226_" gradientUnits="userSpaceOnUse" x1="255.3101" y1="70.0261" x2="72.1059" y2="70.0261">
					<stop  offset="0" style="stop-color:#212661"/>
					<stop  offset="1" style="stop-color:#E01541"/>
				</linearGradient>
				<path style="fill:url(#SVGID_00000180349443327882331560000010240904165261527226_);" d="M255.548,73.816
					c0,0,0.568-2.321,0.595-2.883c0.024-0.563-0.304-0.978-0.714-1.21c-9.898-5.635-18.17-3.542-21.826-0.033
					C241.849,65.926,251.199,69.16,255.548,73.816z"/>
				
					<linearGradient id="SVGID_00000147916107738330205610000004747735913858443653_" gradientUnits="userSpaceOnUse" x1="255.3116" y1="81.3115" x2="72.0967" y2="81.3115">
					<stop  offset="0" style="stop-color:#212661"/>
					<stop  offset="1" style="stop-color:#E01541"/>
				</linearGradient>
				<path style="fill:url(#SVGID_00000147916107738330205610000004747735913858443653_);" d="M230.488,79.643
					c-0.874-3.568-0.113-6.44-0.113-6.44s-2.702,3.269-3.802,7.462c0.332,3.178,1.022,6.318,2.003,8.757
					C228.576,89.421,229.309,84.12,230.488,79.643z"/>
				
					<linearGradient id="SVGID_00000176011871960232397340000013494139588248596627_" gradientUnits="userSpaceOnUse" x1="255.3111" y1="94.0288" x2="72.1036" y2="94.0288">
					<stop  offset="0" style="stop-color:#212661"/>
					<stop  offset="1" style="stop-color:#E01541"/>
				</linearGradient>
				<path style="fill:url(#SVGID_00000176011871960232397340000013494139588248596627_);" d="M225.256,86.242
					c0,0-1.798,4.718-1.856,10.31c0,0,0.889,3.175,2.811,5.264C225.43,98.072,224.811,90.273,225.256,86.242z"/>
				
					<linearGradient id="SVGID_00000027563771209463432650000007883750244185164164_" gradientUnits="userSpaceOnUse" x1="255.3095" y1="126.7604" x2="72.1104" y2="126.7604">
					<stop  offset="0" style="stop-color:#212661"/>
					<stop  offset="1" style="stop-color:#E01541"/>
				</linearGradient>
				<path style="fill:url(#SVGID_00000027563771209463432650000007883750244185164164_);" d="M220.51,111.962
					c0,0-4.027-4.887-4.306-4.857c-0.274,0.029-11.437,2.8-18.373,9.673c0,0,3.308,5.474,2.924,11.433
					c-3.489-5.612-4.601-8.233-11.544-10.532c-4.82,0.902-9.23,5.215-9.23,5.215s8.301-2.877,13.555,1.435
					c4.042,3.318,7.206,9.639,7.206,9.639c2.232-0.011,6.564,0.637,6.928,0.729c0.362,0.092,0.62,0.587,0.62,0.587
					s-1.938,1.589-2.409,4.04c-0.47,2.452-0.174,3.146-0.143,3.449c0.031,0.305-0.101,0.654-1.061,0.81
					c-0.961,0.157-9.323,1.392-16.485-1.408c-7.163-2.8-9.711-5.551-10.248-5.606c-0.536-0.054-0.946,0.295-1.203,1.047
					c-0.257,0.754-0.514,2.846-0.514,2.846s-1.953,0.011-3.55-2.169c-0.264,2.818,0.991,6.292,3.46,9.078
					c2.47,2.787,4.401,2.558,5.597,2.516c1.197-0.042,18.588-1.464,27.118-2.689c0,0,0.819,0.893,2.679,1.314
					c1.858,0.419,5.192,0.24,5.192,0.24s0.661,1.245,0.987,1.714c0.33,0.467,0.945,1.016,2.7,0.975
					c1.754-0.044,10.182-0.393,11.355-0.376c1.176,0.017,2.213-1.012,2.465-1.541c0.252-0.53,0.081-3.501,0.387-3.532
					c0.304-0.031,1.137,0.747,1.304,1.011c0.169,0.259,1.096,2.455,1.606,3.071c0.511,0.616,1.966,0.633,2.608,0.369
					c0.643-0.264,0.438-0.883,0.366-1.574c-0.071-0.69-1.167-4.484-1.845-5.644c-0.68-1.157-5.322-6.566-6.622-7.52
					c-1.3-0.954-1.854-1.176-2.835-0.934c-0.98,0.241-7.856,2.858-8.838,3.35c-0.982,0.496-1.806,2.508-2.123,2.68
					c-0.317,0.175-6.799,0.963-7.846,1.1c-1.046,0.137-1.276-0.454-1.18-1.412c0.095-0.961,0.92-3.226,1.877-3.688
					c0.956-0.463,15.688-4.375,17.234-4.536c1.547-0.16,2.618,0.203,3.591,0.966c0.975,0.766,5.016,4.702,5.356,5.028
					c0.341,0.327,4.478,0.622,5.205,0.63c0.727,0.009,1.131,0.133,1.929-0.508c0.8-0.641,6.634-4.688,7.048-5.009
					c0.413-0.321,0.663-0.703,0.19-0.858c-15.195-4.837-27.112-20.017-30.655-30.429C219.935,104.313,220.51,111.962,220.51,111.962
					z"/>
				
					<linearGradient id="SVGID_00000085225266187791870920000009874156541316922555_" gradientUnits="userSpaceOnUse" x1="255.3079" y1="131.7654" x2="72.1127" y2="131.7654">
					<stop  offset="0" style="stop-color:#212661"/>
					<stop  offset="1" style="stop-color:#E01541"/>
				</linearGradient>
				<path style="fill:url(#SVGID_00000085225266187791870920000009874156541316922555_);" d="M188.973,130.921
					c3.654-0.581,4.83-0.686,5.026-0.679c0.196,0.009,0.237-0.259-0.141-0.418c-0.461-0.193-4.125-1.525-5.851-1.457
					c-1.725,0.068-4.104,0.819-5.15,3.107c-1.045,2.285,0.08,3.706,0.219,3.691C183.214,135.152,185.039,131.547,188.973,130.921z"
					/>
				
					<linearGradient id="SVGID_00000052812923568087757520000001684751032028854201_" gradientUnits="userSpaceOnUse" x1="255.3094" y1="131.4646" x2="72.1089" y2="131.4646">
					<stop  offset="0" style="stop-color:#212661"/>
					<stop  offset="1" style="stop-color:#E01541"/>
				</linearGradient>
				<path style="fill:url(#SVGID_00000052812923568087757520000001684751032028854201_);" d="M305.934,134.092
					c-0.435,0.121-3.889,0.554-3.889,0.554l-13.167-5.925l-1.815,1.53c0,0-0.745-1.786-0.653-3.062
					c-7.025-4.146-22.074-11.446-22.074-11.446s-0.488,5.44-0.6,6.011c-0.112,0.57-1.737,4.527-4.303,7.431
					c-2.896,3.281-5.004,4.32-4.975,4.599c0.029,0.273,9.96,4.99,10.281,5.125c0.321,0.135,0.803,0.197,1.436,0.104
					c0.632-0.096,29.351-4.85,29.351-4.85l2.199,1.278c0,0-34.295,6.174-35.461,6.24c-1.166,0.066-8.275-2.374-9.665-2.231
					c-1.39,0.145-12.778,2.34-12.778,2.34s1.27,2.267,2.402,5.083l12.621-2.155c0,0,6.361,2.074,6.885,2.27
					c0.523,0.197,1.056,0.227,1.498,0.181c0.441-0.046,47.641-8.266,47.641-8.266s3.649-4.291,3.772-4.359
					c0.123-0.068,0.819,0.177,1.206,0.489c0.385,0.313,0.289,0.641,0.038,1.262c-0.254,0.622-1.866,3.695-1.853,3.826
					c0.012,0.127,0.802,1.273,0.985,1.253c0.185-0.019,4.609-1.502,4.609-1.502s1.177,1.811,1.286,1.969
					c0.109,0.155,0.464,0.344,0.794,0.29c0.329-0.054,3.123-1.109,3.378-1.174c0.255-0.063,0.265-0.492,0.236-0.768
					c-0.029-0.275,0.006-1.899,0.006-1.899s3.428-3.394,3.636-3.713c0.209-0.319,0.565-0.655,0.248-1.366
					c-0.316-0.712-2.7-5.715-2.979-6.057c-0.278-0.345-0.815-0.494-1.192-0.546c-0.379-0.054-4.436-0.57-4.727-0.519
					c-0.293,0.055-8.106,1.727-9.749,2.047c-1.643,0.32-4.1,1.395-4.176,1.738c-0.076,0.345-0.409,2.129-0.315,2.678
					C306.166,133.101,306.368,133.972,305.934,134.092z"/>
				
					<linearGradient id="SVGID_00000015325824335073516260000018320001946876813449_" gradientUnits="userSpaceOnUse" x1="255.3097" y1="118.6563" x2="72.1118" y2="118.6563">
					<stop  offset="0" style="stop-color:#212661"/>
					<stop  offset="1" style="stop-color:#E01541"/>
				</linearGradient>
				<path style="fill:url(#SVGID_00000015325824335073516260000018320001946876813449_);" d="M265.673,112.783
					c0,0,9.709,5.801,18.345,10.933c10.566,1.691,22.001,2.076,22.001,2.076l-19.67-3.827l-21.423-10.444L265.673,112.783z"/>
				<g>
					
						<linearGradient id="SVGID_00000135652800145504816880000006804387097872381092_" gradientUnits="userSpaceOnUse" x1="255.3091" y1="228.724" x2="72.1095" y2="228.724">
						<stop  offset="0" style="stop-color:#212661"/>
						<stop  offset="1" style="stop-color:#E01541"/>
					</linearGradient>
					<path style="fill:url(#SVGID_00000135652800145504816880000006804387097872381092_);" d="M246.324,245.646
						c0.434,0.43,1.148,0.048,1.528-0.327c0.38-0.374,2.407-2.875,6.111-3.261c4.31-0.45,7.204,2.124,8.163,2.75
						c0.96,0.625,1.969,0.129,2.235-0.512c0.238-0.566,14.964-46.328,18.493-57.303l19.896,35.459
						c-3.691,10.822-5.237,23.474-4.022,36.847l-41.237,49.899l43.19-37.347c1.929,8.761,4.967,16.855,8.828,23.996l10.974-3.466
						c-4.663-8.261-8.029-18.409-9.379-29.565c-1.043-8.622-0.745-16.887,0.621-24.368l13.697,24.412
						c2.911,5.121,5.584,6.658,9.425,4.916c3.654-1.658,3.362-5.433,2.557-7.266c-0.922-2.102-1.897-2.467-2.816-2.705
						c-0.919-0.238-2.911-0.591-3.482-1.257l-60.575-107.96c-2.201-1-6.248,0.205-7.234,3.547l9.87,17.592
						c-4.977,5.989-36.814,44.304-37.067,44.586c-0.274,0.309-0.278,0.813-0.28,1.063c-0.002,0.253,1.104,18.876,1.118,19.015
						C236.953,234.529,245.887,245.217,246.324,245.646z M268.415,189.245c0.093-0.116,0.217-0.022,0.135,0.266
						c-0.081,0.286-14.207,45.469-15.083,47.515c-0.875,2.047-2.32,1.053-2.694,0.674c-0.374-0.382-10.305-13.646-10.305-13.646
						L268.415,189.245z"/>
					
						<linearGradient id="SVGID_00000064318296705918962470000004779973512708883625_" gradientUnits="userSpaceOnUse" x1="255.31" y1="209.8493" x2="72.1117" y2="209.8493">
						<stop  offset="0" style="stop-color:#212661"/>
						<stop  offset="1" style="stop-color:#E01541"/>
					</linearGradient>
					<path style="fill:url(#SVGID_00000064318296705918962470000004779973512708883625_);" d="M300.31,179.532l13.094,23.335
						c-1.692,2.039-3.269,4.252-4.707,6.637l7.747,13.822c5.015-10.578,12.878-17.626,22.388-18.617
						c13.815-1.441,27.285,10.294,34.988,28.417l-24.243,29.337l26.613-23.014c1.648,5.061,2.867,10.503,3.557,16.209
						c0.752,6.209,0.809,12.238,0.279,17.924l15.465-4.883c0.226-5.253,0.033-10.685-0.647-16.226
						c-4.668-38.055-29.893-66.666-56.342-63.908c-7.133,0.743-13.618,3.707-19.205,8.367l-28.321-50.475
						c-2.199-0.999-6.246,0.206-7.233,3.547l3.823,6.813c-3.675-0.473-7.493,0.98-8.252,3.555l12.408,22.118
						C293.166,180.3,296.776,179.128,300.31,179.532z"/>
				</g>
				
					<linearGradient id="SVGID_00000063618201445583032830000010512639044962325661_" gradientUnits="userSpaceOnUse" x1="255.3096" y1="233.5103" x2="72.1102" y2="233.5103">
					<stop  offset="0" style="stop-color:#212661"/>
					<stop  offset="1" style="stop-color:#E01541"/>
				</linearGradient>
				<path style="fill:url(#SVGID_00000063618201445583032830000010512639044962325661_);" d="M350.766,253.016l-21.888-39.011
					c-2.079,1.751-3.983,3.866-5.698,6.284l16.806,29.956L350.766,253.016z"/>
				
					<linearGradient id="SVGID_00000142892834007559013440000010013902563330675106_" gradientUnits="userSpaceOnUse" x1="255.309" y1="225.8492" x2="72.1099" y2="225.8492">
					<stop  offset="0" style="stop-color:#212661"/>
					<stop  offset="1" style="stop-color:#E01541"/>
				</linearGradient>
				<path style="fill:url(#SVGID_00000142892834007559013440000010013902563330675106_);" d="M208.273,207.433
					c0.392,0.183,1.49,4.649,1.885,7.364c2.472-1.3,7.142-1.862,7.142-1.862l-1.772,3.35l1.348,0.79c0,0,7.287,28.174,8.244,31.455
					c-0.552,0.336-1.724,2.22-1.724,2.22c1.607-0.672,2.835-0.662,2.835-0.662l-3.013,2.448c0,0,0.99,5.222,2.378,8.874
					c1.217-1.541,5.011-3.725,5.011-3.725c-2.76,3.528-3.801,11.046-3.801,11.046s2.725-1.362,4.79-1.914
					c0,0-2.691,4.527-2.831,6.775c1.94-1.393,5.884-3.93,5.884-3.93s-5.359,7.524-5.842,9.325c-0.483,1.8,0.93,3.924,2.632,4.527
					c1.701,0.605,5.106,0.4,6.486-1.01c1.378-1.411,5.641-6.249,7.307-8.137c1.666-1.886,4.451-2.661,5.908-3.333
					c1.458-0.674,2.742-0.137,6.991-6.873c4.25-6.736,3.65-9.989,3.817-11.235c0.168-1.247-0.474-3.115-3.36-5.459
					c-2.89-2.342-5.727-1.34-6.626-0.689c-0.9,0.653-6.48,6.076-8.226,6.819c-1.747,0.738-6.416-0.45-7.458-1.159
					c-0.111-0.077-1.601-3.558-1.721-4.362c-0.121-0.807-2.77-36.913-2.77-37.994c-0.002-1.081,0.576-1.251,0.946-0.917
					s2.498,2.533,2.498,2.533l23.187-27.967l-43.543-14.934c2.073-9.043,6.779-12.131,7.084-12.943
					c0.306-0.816-0.278-2.216-0.562-2.52c0,0-1.243,0.205-2.994,0.225c-1.72,0.021-3.113-2.735-3.113-2.735s-2.571-0.013-4.201-0.12
					c-1.633-0.109-3.144-1.124-3.144-1.124l-25.432,2.427c0,0,1.581,3.914,6.516,7.311c-2.744-0.607-13.182-3.206-13.182-3.206
					s-1.021,3.067-1.446,4.341c-0.427,1.273,0.232,3.831,0.232,3.831s-4.376,3.581-4.971,6.438
					c6.703-0.531,12.251,1.794,23.183,5.905l-3.209-5.586c0,0,10.402-0.415,18.452,3.383c-7.921,7.081-11.12,17.638-11.12,17.638
					s-4.981-2.777-10.59-4.594c-0.165,0.017,1.11,3.681,2.149,6.143c-20.348-3.352-24.283-13.239-24.283-13.239
					s0.473,3.993,2.814,8.775c1.799,3.673,3.812,7.749,7.538,10.482L89.903,302.117l110.902-95.902
					C205.017,206.895,208.132,207.366,208.273,207.433z"/>
				
					<linearGradient id="SVGID_00000036944134673352558750000011908535325159244685_" gradientUnits="userSpaceOnUse" x1="255.3105" y1="182.4682" x2="72.1098" y2="182.4682">
					<stop  offset="0" style="stop-color:#212661"/>
					<stop  offset="1" style="stop-color:#E01541"/>
				</linearGradient>
				<path style="fill:url(#SVGID_00000036944134673352558750000011908535325159244685_);" d="M163.532,178.344l8.693-31.797
					c0,0-2.293,5.07-4.674,10.477l-50.711,61.365l46.618-40.313C163.505,178.246,163.532,178.344,163.532,178.344z"/>
				
					<linearGradient id="SVGID_00000028325767269866023600000018312265522051723194_" gradientUnits="userSpaceOnUse" x1="255.3107" y1="231.1138" x2="72.1041" y2="231.1138">
					<stop  offset="0" style="stop-color:#212661"/>
					<stop  offset="1" style="stop-color:#E01541"/>
				</linearGradient>
				<path style="fill:url(#SVGID_00000028325767269866023600000018312265522051723194_);" d="M210.858,227.571
					c2.754,8.539,9.366,18.76,9.366,18.76l-9.915-30.435C210.31,215.896,210.123,222.658,210.858,227.571z"/>
				<g>
					
						<linearGradient id="SVGID_00000114035443174262958930000005718574173036677251_" gradientUnits="userSpaceOnUse" x1="255.3088" y1="305.0786" x2="72.1122" y2="305.0786">
						<stop  offset="0" style="stop-color:#212661"/>
						<stop  offset="1" style="stop-color:#E01541"/>
					</linearGradient>
					<path style="fill:url(#SVGID_00000114035443174262958930000005718574173036677251_);" d="M198.612,318.519l27.594-23.874
						c0.099,11.151-2.487,21.582-6.993,29.717l15.351-4.848c3.09-9.746,4.215-20.936,2.798-32.544
						c-7.359,1.367-10.629-0.263-11.797-1.174c0.004,0.031,0.01,0.063,0.014,0.094L198.612,318.519z"/>
					
						<linearGradient id="SVGID_00000080182162931128215820000004654460685800233886_" gradientUnits="userSpaceOnUse" x1="255.31" y1="291.7825" x2="72.1108" y2="291.7825">
						<stop  offset="0" style="stop-color:#212661"/>
						<stop  offset="1" style="stop-color:#E01541"/>
					</linearGradient>
					<path style="fill:url(#SVGID_00000080182162931128215820000004654460685800233886_);" d="M153.114,300.043
						c0.768,6.224,2.215,12.107,4.206,17.533l-25.973,31.429l28.757-24.868c2.903,5.988,6.521,11.233,10.644,15.528l10.521-3.322
						c-9.4-6.575-16.642-19.603-18.616-35.748c-3.165-25.859,8.385-49.929,25.795-53.76c6.587-1.45,13.067,0.216,18.753,4.235
						c2.464,1.969,2.511,5.145,2.511,5.145l-22.252,32.415c-0.521-0.234-1.076-0.34-1.654-0.279
						c-2.624,0.273-4.64,3.735-4.499,7.731c0.138,3.995,2.379,7.013,5.004,6.739c2.623-0.274,4.638-3.735,4.499-7.73
						c-0.013-0.34-0.045-0.668-0.085-0.991l31.231-31.193c-0.92-6.662-3.902-15.454-7.279-20.268
						c-7.935-6.218-17.203-9.187-26.667-7.703c-14.483,2.269-26.003,14.427-31.674,31.079l-50.723,61.38l46.956-40.605
						C152.396,291.107,152.559,295.542,153.114,300.043z"/>
				</g>
				
					<linearGradient id="SVGID_00000181777765261917097950000012053341547966713533_" gradientUnits="userSpaceOnUse" x1="255.3093" y1="279.8622" x2="72.1147" y2="279.8622">
					<stop  offset="0" style="stop-color:#212661"/>
					<stop  offset="1" style="stop-color:#E01541"/>
				</linearGradient>
				<path style="fill:url(#SVGID_00000181777765261917097950000012053341547966713533_);" d="M266.617,275.482
					c-0.022-3.118-0.683-5.963-1.798-8.359c-0.535-0.902-1.899-1.844-2.794-0.798c-0.947,1.103-6.335,7.811-6.335,7.811
					s-5.68,0.703-6.902,1.838c-1.223,1.132-5.629,6.004-6.065,6.663c-0.426,0.649-0.714,1.459-0.494,2.118
					c1.997,5.837,6.527,9.599,11.77,9.052C261.033,293.072,266.682,284.869,266.617,275.482z"/>
				
					<linearGradient id="SVGID_00000102517972406289141460000003242625186141038743_" gradientUnits="userSpaceOnUse" x1="255.3095" y1="106.3254" x2="72.1107" y2="106.3254">
					<stop  offset="0" style="stop-color:#212661"/>
					<stop  offset="1" style="stop-color:#E01541"/>
				</linearGradient>
				<path style="fill:url(#SVGID_00000102517972406289141460000003242625186141038743_);" d="M253.439,131.261
					c0.481,0.063,2.606-0.718,4.912-3.528c2.304-2.808,3.539-5.423,3.995-6.672c0.456-1.248,0.484-5.525,0.485-6.865
					c0-1.342-0.053-2.117-0.239-2.293c-0.186-0.177-2.523,0.988-2.819,0.825c-0.296-0.166-1.604-2.98-2.339-3.931
					c-0.357-0.461-1.167-0.321-1.928,0.057c-0.761,0.377-4.975,1.94-5.578,1.866c-2.829-0.356-5.28-1.535-5.969-1.892
					c-0.688-0.357-1.003-0.155-1.107,0.098c-0.104,0.253-0.407,1.028-0.407,1.028c-3.742-4.712-7.348-11.633-7.348-11.633
					s-0.874,2.325-0.934,3.523c-7.283-9.147-8.093-20.458-8.093-20.458c-0.565,2.069-1.066,5.475,2.058,14.383
					c3.128,8.908,7.198,13.391,7.198,13.391s0.248-1.645,0.549-3.576c1.407,3.316,5.413,8.792,5.413,8.792s-0.174,2.338-0.247,5.387
					c-5.084-3.491-8.441-8.894-8.441-8.894s-0.052,1.373,0.143,2.443c-6.028-5.32-8.593-12.138-9.745-16.039
					c0.049,2.601,0.366,9.941,10.852,20.84C244.334,129.011,252.96,131.201,253.439,131.261z M255.674,121.61l1.9,0.398
					c0,0-2.821,5.297-4.364,7.048l-1.422-1.12L255.674,121.61z M254.379,121.237c0,0-2.404,4.509-3.72,6l-1.209-0.952l3.307-5.389
					L254.379,121.237z M251.182,120.466c0,0-1.985,3.723-3.071,4.952l-0.998-0.785l2.732-4.447L251.182,120.466z M246.928,119.475
					l1.057,0.22c0,0-1.566,2.937-2.423,3.905l-0.787-0.618L246.928,119.475z"/>
				
					<linearGradient id="SVGID_00000035507928872473515300000014602733409214768774_" gradientUnits="userSpaceOnUse" x1="255.3096" y1="133.8902" x2="72.1112" y2="133.8902">
					<stop  offset="0" style="stop-color:#212661"/>
					<stop  offset="1" style="stop-color:#E01541"/>
				</linearGradient>
				<path style="fill:url(#SVGID_00000035507928872473515300000014602733409214768774_);" d="M168.181,141.166
					c0.21-2.173,0.782-5.703,2.293-10.517c0.179-0.566,0.407-1.149,0.659-1.736c2.074-3.497,9.006-13.736,24.519-24.649
					c11.768-5.702,25.201-9.726,25.201-9.726s-12.315,0.446-25.716,6.218c-7.403,4.706-14.004,10.604-18.883,17.828l-45.169,54.658
					L168.181,141.166z"/>
			</g>
		</g>
		
			<text transform="matrix(0.8033 -0.2537 -0.0766 0.9971 111.3563 412.7034)" style="fill:#FFFFFF; font-family:'Montserrat-Black'; font-size:65.7203px;">DASHBIKE</text>
		
			<text transform="matrix(0.8033 -0.2537 -0.0766 0.9971 190.88 410.611)" style="fill:#FFFFFF; font-family:'Montserrat-Black'; font-size:19.0818px;">BIKE RACE TEAM</text>
	</g>
</g>
</svg>
